<svg xmlns="http://www.w3.org/2000/svg" viewBox="0 0 500 500"><g id="freepik--background-simple--inject-217"><path d="M485.64,265.12c.09-1.08.17-2.15.31-3.22,1.5-11.49,8.48-97.87-100-206.5C269.31-61.36,141.86,69.78,119.85,104.06S91.42,191,74.43,156.34c-10.5-21.42,16.88-48.23-21.91-37-24.88,7.19-71.1,70.78-33.21,180S163.61,492,265.88,485.88c131.52-7.81,209-103.19,202.81-110.28s-55.13,14.06-44.37-.67C434.91,360.42,482.55,305.66,485.64,265.12Z" style="fill:#00FF88"></path><path d="M485.64,265.12c.09-1.08.17-2.15.31-3.22,1.5-11.49,8.48-97.87-100-206.5C269.31-61.36,141.86,69.78,119.85,104.06S91.42,191,74.43,156.34c-10.5-21.42,16.88-48.23-21.91-37-24.88,7.19-71.1,70.78-33.21,180S163.61,492,265.88,485.88c131.52-7.81,209-103.19,202.81-110.28s-55.13,14.06-44.37-.67C434.91,360.42,482.55,305.66,485.64,265.12Z" style="fill:#fff;opacity:0.8"></path></g><g id="freepik--Line--inject-217"><path d="M481.64,488H21.36a.5.5,0,0,1,0-1H481.64a.5.5,0,0,1,0,1Z" style="fill:#263238"></path></g><g id="freepik--Clouds--inject-217"><path d="M440.59,218.26H270.09a.49.49,0,0,1-.49-.46.48.48,0,0,1,.41-.53l15.38-2.56c.95-1.11,6.93-7.85,12.52-8.47a17.09,17.09,0,0,1,7.88,1.47c2.1.78,3.76,1.39,4.85.58a11.32,11.32,0,0,0,2-2.27,19.2,19.2,0,0,1,11.82-8.19c6-1.6,12.58,1.06,17.85,3.21,3.24,1.31,6,2.44,7.4,2,1-.33,2.45-2.84,4.1-5.74,4.1-7.2,10.29-18.09,21.37-17.62,15.19.63,22,13,22.44,13.84,1.25,1.6,4.92,5.61,7.36,5.61a14.41,14.41,0,0,0,4.06-1.3c4.15-1.71,9.82-4.05,15-1.23,7.17,3.91,16.65,20.24,17,20.93a.5.5,0,0,1-.44.75Zm-164.46-1H439.72c-2-3.3-10.15-16.49-16.22-19.8-4.74-2.59-10.16-.36-14.12,1.27a14.05,14.05,0,0,1-4.44,1.38c-3.45,0-8-5.78-8.18-6a.22.22,0,0,1-.05-.08c-.06-.13-6.55-12.71-21.62-13.34-10.48-.44-16.47,10.12-20.45,17.11-1.9,3.33-3.27,5.74-4.65,6.2-1.73.58-4.54-.56-8.09-2-5.14-2.08-11.54-4.68-17.22-3.16a18.24,18.24,0,0,0-11.27,7.81,12.05,12.05,0,0,1-2.17,2.47c-1.53,1.15-3.51.42-5.8-.43a15.9,15.9,0,0,0-7.41-1.41c-5.57.62-11.93,8.17-12,8.25a.53.53,0,0,1-.31.17Z" style="fill:#263238"></path><path d="M274.43,59.81H153.89a.5.5,0,0,1-.5-.46.49.49,0,0,1,.42-.53L164.63,57c.78-.91,5-5.56,8.91-6a12.32,12.32,0,0,1,5.64,1c1.44.53,2.58,1,3.28.43a7.76,7.76,0,0,0,1.37-1.58,13.66,13.66,0,0,1,8.43-5.84c4.29-1.15,9,.75,12.72,2.27,2.16.88,4.2,1.71,5.13,1.4.66-.22,1.71-2,2.81-4,2.92-5.12,7.29-12.87,15.24-12.53,10.75.45,15.59,9.12,16,9.85.87,1.12,3.41,3.9,5.07,3.9a9.89,9.89,0,0,0,2.82-.91c3-1.22,7-2.88,10.71-.86,5.11,2.78,11.83,14.36,12.12,14.85a.5.5,0,0,1-.44.75Zm-114.5-1H273.55c-1.59-2.64-7.13-11.47-11.27-13.73-3.29-1.79-7.09-.23-9.86.91a10.06,10.06,0,0,1-3.2,1c-2.46,0-5.55-3.88-5.89-4.32a.35.35,0,0,1-.05-.08c-.05-.09-4.6-8.91-15.16-9.35-7.28-.29-11.53,7.11-14.33,12-1.41,2.48-2.34,4.11-3.37,4.45-1.27.43-3.28-.39-5.82-1.42C201,46.81,196.49,45,192.52,46a12.81,12.81,0,0,0-7.89,5.48,8.48,8.48,0,0,1-1.57,1.78c-1.14.85-2.57.32-4.23-.29a11,11,0,0,0-5.18-1c-3.87.43-8.33,5.73-8.38,5.78a.48.48,0,0,1-.3.17Z" style="fill:#263238"></path><path d="M488.79,86.91h-63.2a.5.5,0,0,1-.5-.46.49.49,0,0,1,.42-.53L431.1,85c.53-.62,2.7-2.93,4.77-3.16a6.55,6.55,0,0,1,3.06.56c.66.25,1.23.46,1.5.26a4,4,0,0,0,.66-.78,7.51,7.51,0,0,1,4.56-3.15c2.33-.62,4.81.39,6.81,1.2a6.38,6.38,0,0,0,2.53.73,7.65,7.65,0,0,0,1.34-2c1.56-2.73,3.95-6.89,8.21-6.69a10.3,10.3,0,0,1,8.57,5.28c.65.81,1.82,1.93,2.46,1.93a5.19,5.19,0,0,0,1.39-.46c1.5-.62,3.78-1.55,5.82-.44,2.74,1.49,6.29,7.62,6.44,7.88a.5.5,0,0,1,0,.5A.48.48,0,0,1,488.79,86.91Zm-57.24-1h56.36c-1-1.68-3.65-5.68-5.61-6.75-1.62-.89-3.55-.09-5,.49a5.23,5.23,0,0,1-1.77.53c-1.37,0-3-2-3.27-2.35l-.06-.09A9.32,9.32,0,0,0,464.5,73c-3.71-.15-5.86,3.66-7.3,6.19-.76,1.34-1.27,2.23-1.89,2.44s-1.79-.17-3.22-.75c-1.86-.76-4.18-1.7-6.19-1.17a6.42,6.42,0,0,0-4,2.78,4.77,4.77,0,0,1-.87,1c-.7.52-1.55.21-2.45-.12a5.55,5.55,0,0,0-2.6-.51c-1.94.22-4.22,2.92-4.24,3A.52.52,0,0,1,431.55,85.91Z" style="fill:#263238"></path><path d="M84,139.49H20.81a.51.51,0,0,1-.5-.46.49.49,0,0,1,.42-.53l5.59-.94c.54-.61,2.7-2.92,4.77-3.15a6.55,6.55,0,0,1,3.06.56c.67.24,1.24.45,1.5.25a3.91,3.91,0,0,0,.67-.77,7.48,7.48,0,0,1,4.55-3.15c2.33-.63,4.82.39,6.82,1.2a6.35,6.35,0,0,0,2.52.73,7.61,7.61,0,0,0,1.35-2c1.55-2.74,3.89-6.87,8.2-6.69a10.34,10.34,0,0,1,8.58,5.28c.64.81,1.81,1.93,2.46,1.93a5.31,5.31,0,0,0,1.39-.46c1.5-.62,3.77-1.55,5.82-.44,2.73,1.49,6.29,7.62,6.44,7.88a.5.5,0,0,1,0,.5A.52.52,0,0,1,84,139.49Zm-57.25-1H83.13c-1-1.68-3.64-5.68-5.6-6.75-1.63-.89-3.56-.09-5,.48a5.35,5.35,0,0,1-1.77.54c-1.38,0-3-2-3.28-2.36a.22.22,0,0,1,0-.08,9.35,9.35,0,0,0-7.75-4.77c-3.71-.16-5.86,3.66-7.29,6.18-.77,1.35-1.27,2.24-1.9,2.45s-1.78-.17-3.22-.76c-1.86-.75-4.18-1.69-6.18-1.16a6.45,6.45,0,0,0-4,2.78,4.22,4.22,0,0,1-.87,1c-.7.53-1.55.22-2.44-.11a5.75,5.75,0,0,0-2.61-.51c-1.93.22-4.21,2.92-4.24,2.95A.45.45,0,0,1,26.77,138.49Z" style="fill:#263238"></path></g><g id="freepik--Trees--inject-217"><path d="M262.74,356.68c0,31.68-18.74,57.37-41.86,57.37S179,388.36,179,356.68s18.75-140.59,41.87-140.59S262.74,325,262.74,356.68Z" style="fill:#00FF88"></path><path d="M262.74,356.68c0,31.68-18.74,57.37-41.86,57.37S179,388.36,179,356.68s18.75-140.59,41.87-140.59S262.74,325,262.74,356.68Z" style="fill:#fff;opacity:0.5"></path><polygon points="244.35 373.25 231.68 377.94 234.22 370.31 228.16 379.24 222.11 381.48 221.68 356.42 243.7 327.16 231.9 338.97 233.89 330.76 228.25 342.62 221.56 349.31 220.88 310.16 218.48 367.26 197.61 345.14 209.07 360.73 198.26 359.52 211.62 364.18 218.23 373.17 217.07 400.7 209.38 395.48 216.84 406.4 213.3 487.5 223.99 487.5 222.18 385.48 244.35 373.25" style="fill:#878787"></polygon><path d="M243.91,310.28a9.09,9.09,0,0,1-7.61,10.23,9.09,9.09,0,0,1,7.61-10.23Z" style="fill:#fff"></path><path d="M256.53,328a9.11,9.11,0,0,1-7.61,10.23A9.09,9.09,0,0,1,256.53,328Z" style="fill:#fff"></path><path d="M256.52,362.53a9.09,9.09,0,0,1-10.61,7.06,9.09,9.09,0,0,1,10.61-7.06Z" style="fill:#fff"></path><path d="M187.23,362.53a9.09,9.09,0,0,0,10.61,7.06,9.09,9.09,0,0,0-10.61-7.06Z" style="fill:#fff"></path><path d="M242,348.2a9.11,9.11,0,0,1-7.61,10.23A9.09,9.09,0,0,1,242,348.2Z" style="fill:#fff"></path><path d="M238.68,291a9.08,9.08,0,0,1-7.61,10.22A9.08,9.08,0,0,1,238.68,291Z" style="fill:#fff"></path><path d="M231.16,305.71a9.08,9.08,0,0,1-7.61,10.22,9.08,9.08,0,0,1,7.61-10.22Z" style="fill:#fff"></path><path d="M249,295a9.08,9.08,0,0,1-7.61,10.22A9.08,9.08,0,0,1,249,295Z" style="fill:#fff"></path><path d="M191,295a9.09,9.09,0,0,0,7.62,10.22A9.09,9.09,0,0,0,191,295Z" style="fill:#fff"></path><path d="M240.32,273a9.11,9.11,0,0,1-7.62,10.23A9.11,9.11,0,0,1,240.32,273Z" style="fill:#fff"></path><path d="M236.62,253.92a9.08,9.08,0,0,1-4.8,11.81,9.09,9.09,0,0,1,4.8-11.81Z" style="fill:#fff"></path><path d="M210.15,248.93a9.1,9.1,0,0,1,4.34,12,9.1,9.1,0,0,1-4.34-12Z" style="fill:#fff"></path><path d="M222.49,271.77a9.09,9.09,0,0,1-.73,12.73,9.09,9.09,0,0,1,.73-12.73Z" style="fill:#fff"></path><path d="M221.84,237.77a9.09,9.09,0,0,1-.73,12.73,9.09,9.09,0,0,1,.73-12.73Z" style="fill:#fff"></path><path d="M194.13,310.28a9.11,9.11,0,0,0,7.61,10.23,9.09,9.09,0,0,0-7.61-10.23Z" style="fill:#fff"></path><path d="M186.94,331.2a9.09,9.09,0,0,0,7.61,10.23,9.09,9.09,0,0,0-7.61-10.23Z" style="fill:#fff"></path><path d="M206,338.8A9.08,9.08,0,0,0,213.64,349,9.08,9.08,0,0,0,206,338.8Z" style="fill:#fff"></path><path d="M211.25,309.81a9.1,9.1,0,0,0,4.36,12,9.1,9.1,0,0,0-4.36-12Z" style="fill:#fff"></path><path d="M197.73,387a9.1,9.1,0,0,0,9.57-8.43,9.1,9.1,0,0,0-9.57,8.43Z" style="fill:#fff"></path><path d="M234.82,382.72a9.1,9.1,0,0,0,10.83,6.72,9.08,9.08,0,0,0-10.83-6.72Z" style="fill:#fff"></path><path d="M202,291a9.09,9.09,0,0,0,7.62,10.22A9.09,9.09,0,0,0,202,291Z" style="fill:#fff"></path><path d="M202,274a9.09,9.09,0,0,0,7.61,10.23A9.11,9.11,0,0,0,202,274Z" style="fill:#fff"></path><path d="M332.79,395.11c0,22.38-13.23,40.52-29.56,40.52s-29.57-18.14-29.57-40.52,13.24-99.28,29.57-99.28S332.79,372.74,332.79,395.11Z" style="fill:#00FF88"></path><path d="M332.79,395.11c0,22.38-13.23,40.52-29.56,40.52s-29.57-18.14-29.57-40.52,13.24-99.28,29.57-99.28S332.79,372.74,332.79,395.11Z" style="fill:#fff;opacity:0.5"></path><polygon points="319.81 406.82 310.85 410.13 312.65 404.74 308.37 411.05 304.1 412.63 303.79 394.93 319.35 374.27 311.01 382.61 312.42 376.81 308.43 385.18 303.71 389.91 303.23 362.26 301.54 402.58 286.8 386.97 294.89 397.97 287.26 397.12 296.69 400.41 301.36 406.76 300.54 426.2 295.11 422.52 300.37 430.23 297.88 487.5 305.43 487.5 304.15 415.45 319.81 406.82" style="fill:#878787"></polygon><path d="M319.49,362.35a6.42,6.42,0,0,1-5.37,7.22,6.42,6.42,0,0,1,5.37-7.22Z" style="fill:#fff"></path><path d="M328.4,374.87a6.42,6.42,0,0,1-5.37,7.22,6.42,6.42,0,0,1,5.37-7.22Z" style="fill:#fff"></path><path d="M328.4,399.25a6.44,6.44,0,0,1-7.49,5,6.41,6.41,0,0,1,7.49-5Z" style="fill:#fff"></path><path d="M279.46,399.25a6.45,6.45,0,0,0,7.5,5,6.43,6.43,0,0,0-7.5-5Z" style="fill:#fff"></path><path d="M318.11,389.13a6.42,6.42,0,0,1-5.38,7.22,6.42,6.42,0,0,1,5.38-7.22Z" style="fill:#fff"></path><path d="M315.8,348.73a6.42,6.42,0,0,1-5.38,7.22,6.44,6.44,0,0,1,5.38-7.22Z" style="fill:#fff"></path><path d="M310.49,359.12a6.42,6.42,0,0,1-5.38,7.22,6.44,6.44,0,0,1,5.38-7.22Z" style="fill:#fff"></path><path d="M323.1,351.56a6.44,6.44,0,0,1-5.38,7.22,7.57,7.57,0,0,1,1.21-4.71A7.49,7.49,0,0,1,323.1,351.56Z" style="fill:#fff"></path><path d="M282.14,351.56a6.42,6.42,0,0,0,5.37,7.22,6.42,6.42,0,0,0-5.37-7.22Z" style="fill:#fff"></path><path d="M317,336a6.44,6.44,0,0,1-5.37,7.23A6.44,6.44,0,0,1,317,336Z" style="fill:#fff"></path><path d="M314.35,322.55a6.43,6.43,0,0,1-3.39,8.34,6.4,6.4,0,0,1,3.39-8.34Z" style="fill:#fff"></path><path d="M295.65,319a6.42,6.42,0,0,1,3.07,8.47,6.42,6.42,0,0,1-3.07-8.47Z" style="fill:#fff"></path><path d="M304.37,335.15a6.42,6.42,0,0,1-.52,9,6.42,6.42,0,0,1,.52-9Z" style="fill:#fff"></path><path d="M303.91,311.14a6.42,6.42,0,0,1-.52,9,6.42,6.42,0,0,1,.52-9Z" style="fill:#fff"></path><path d="M284.34,362.35a6.42,6.42,0,0,0,5.38,7.22,6.44,6.44,0,0,0-5.38-7.22Z" style="fill:#fff"></path><path d="M279.26,377.12a6.42,6.42,0,0,0,5.38,7.22,6.42,6.42,0,0,0-5.38-7.22Z" style="fill:#fff"></path><path d="M292.74,382.49a6.42,6.42,0,0,0,5.38,7.22,6.42,6.42,0,0,0-5.38-7.22Z" style="fill:#fff"></path><path d="M296.43,362a6.41,6.41,0,0,0,3.08,8.45,6.41,6.41,0,0,0-3.08-8.45Z" style="fill:#fff"></path><path d="M286.88,416.49a6.42,6.42,0,0,0,6.76-5.95,6.42,6.42,0,0,0-6.76,5.95Z" style="fill:#fff"></path><path d="M313.07,413.5a6.43,6.43,0,0,0,7.65,4.75,6.42,6.42,0,0,0-7.65-4.75Z" style="fill:#fff"></path><path d="M289.93,348.73A6.42,6.42,0,0,0,295.3,356a6.42,6.42,0,0,0-5.37-7.22Z" style="fill:#fff"></path><path d="M289.88,336.73a6.42,6.42,0,0,0,5.38,7.22,6.44,6.44,0,0,0-5.38-7.22Z" style="fill:#fff"></path><path d="M98.66,395.11c0,22.38-13.23,40.52-29.56,40.52s-29.57-18.14-29.57-40.52,13.24-99.28,29.57-99.28S98.66,372.74,98.66,395.11Z" style="fill:#00FF88"></path><path d="M98.66,395.11c0,22.38-13.23,40.52-29.56,40.52s-29.57-18.14-29.57-40.52,13.24-99.28,29.57-99.28S98.66,372.74,98.66,395.11Z" style="fill:#fff;opacity:0.5"></path><polygon points="85.68 406.82 76.72 410.13 78.52 404.74 74.24 411.05 69.97 412.63 69.66 394.93 85.22 374.27 76.88 382.61 78.29 376.81 74.3 385.18 69.58 389.91 69.1 362.26 67.41 402.58 52.67 386.97 60.76 397.97 53.13 397.12 62.56 400.41 67.23 406.76 66.41 426.2 60.98 422.52 66.24 430.23 63.75 487.5 71.3 487.5 70.02 415.45 85.68 406.82" style="fill:#878787"></polygon><path d="M85.36,362.35A6.42,6.42,0,0,1,80,369.57a6.42,6.42,0,0,1,5.37-7.22Z" style="fill:#fff"></path><path d="M94.27,374.87a6.42,6.42,0,0,1-5.37,7.22,6.42,6.42,0,0,1,5.37-7.22Z" style="fill:#fff"></path><path d="M94.27,399.25a6.44,6.44,0,0,1-7.49,5,6.41,6.41,0,0,1,7.49-5Z" style="fill:#fff"></path><path d="M45.33,399.25a7.53,7.53,0,0,0,2.73,4,7.57,7.57,0,0,0,4.77,1,7.57,7.57,0,0,0-2.73-4A7.53,7.53,0,0,0,45.33,399.25Z" style="fill:#fff"></path><path d="M84,389.13a6.42,6.42,0,0,1-5.38,7.22A6.42,6.42,0,0,1,84,389.13Z" style="fill:#fff"></path><path d="M81.67,348.73A6.42,6.42,0,0,1,76.29,356a6.42,6.42,0,0,1,5.38-7.22Z" style="fill:#fff"></path><path d="M76.36,359.12A6.42,6.42,0,0,1,71,366.34a6.44,6.44,0,0,1,5.38-7.22Z" style="fill:#fff"></path><path d="M89,351.56a6.44,6.44,0,0,1-5.38,7.22,7.57,7.57,0,0,1,1.21-4.71A7.49,7.49,0,0,1,89,351.56Z" style="fill:#fff"></path><path d="M48,351.56a6.42,6.42,0,0,0,5.37,7.22,7.5,7.5,0,0,0-1.21-4.71A7.48,7.48,0,0,0,48,351.56Z" style="fill:#fff"></path><path d="M82.82,336a6.44,6.44,0,0,1-5.37,7.23A6.44,6.44,0,0,1,82.82,336Z" style="fill:#fff"></path><path d="M80.22,322.55a6.43,6.43,0,0,1-3.39,8.34,6.4,6.4,0,0,1,3.39-8.34Z" style="fill:#fff"></path><path d="M61.52,319a6.42,6.42,0,0,1,3.07,8.47A6.42,6.42,0,0,1,61.52,319Z" style="fill:#fff"></path><path d="M70.24,335.15a6.42,6.42,0,0,1-.52,9,6.42,6.42,0,0,1,.52-9Z" style="fill:#fff"></path><path d="M69.78,311.14a6.42,6.42,0,0,1-.52,9,6.42,6.42,0,0,1,.52-9Z" style="fill:#fff"></path><path d="M50.21,362.35a6.42,6.42,0,0,0,5.38,7.22,7.54,7.54,0,0,0-1.22-4.71A7.55,7.55,0,0,0,50.21,362.35Z" style="fill:#fff"></path><path d="M45.13,377.12a7.57,7.57,0,0,0,1.21,4.71,7.53,7.53,0,0,0,4.17,2.51,7.58,7.58,0,0,0-1.21-4.71A7.59,7.59,0,0,0,45.13,377.12Z" style="fill:#fff"></path><path d="M58.61,382.49A6.42,6.42,0,0,0,64,389.71,7.57,7.57,0,0,0,62.78,385,7.53,7.53,0,0,0,58.61,382.49Z" style="fill:#fff"></path><path d="M62.3,362a6.41,6.41,0,0,0,3.08,8.45A6.41,6.41,0,0,0,62.3,362Z" style="fill:#fff"></path><path d="M52.75,416.49a7.57,7.57,0,0,0,4.6-1.59,7.61,7.61,0,0,0,2.16-4.36,7.57,7.57,0,0,0-4.6,1.59A7.58,7.58,0,0,0,52.75,416.49Z" style="fill:#fff"></path><path d="M78.94,413.5a6.43,6.43,0,0,0,7.65,4.75,6.42,6.42,0,0,0-7.65-4.75Z" style="fill:#fff"></path><path d="M55.8,348.73A6.42,6.42,0,0,0,61.17,356a6.42,6.42,0,0,0-5.37-7.22Z" style="fill:#fff"></path><path d="M55.75,336.73A6.42,6.42,0,0,0,61.13,344a7.54,7.54,0,0,0-1.22-4.71A7.48,7.48,0,0,0,55.75,336.73Z" style="fill:#fff"></path><path d="M495.91,311.68c0,42.58-25.19,77.1-56.27,77.1s-56.26-34.52-56.26-77.1,25.19-188.94,56.26-188.94S495.91,269.1,495.91,311.68Z" style="fill:#00FF88"></path><path d="M495.91,311.68c0,42.58-25.19,77.1-56.27,77.1s-56.26-34.52-56.26-77.1,25.19-188.94,56.26-188.94S495.91,269.1,495.91,311.68Z" style="fill:#fff;opacity:0.5"></path><polygon points="471.19 333.96 454.15 340.26 457.57 330 449.43 342.01 441.3 345.01 440.71 311.34 470.31 272.01 454.45 287.88 457.13 276.85 449.54 292.78 440.55 301.78 439.64 249.16 436.42 325.9 408.37 296.18 423.78 317.12 409.25 315.51 427.19 321.77 436.08 333.85 434.53 370.85 424.18 363.83 434.21 378.51 429.46 487.5 443.82 487.5 441.39 350.39 471.19 333.96" style="fill:#878787"></polygon><path d="M470.59,249.33s.53,5.17-2.3,9-7.93,4.78-7.93,4.78-.52-5.17,2.31-9S470.59,249.33,470.59,249.33Z" style="fill:#fff"></path><path d="M487.55,273.15s.52,5.17-2.3,9-7.93,4.78-7.93,4.78-.52-5.17,2.31-9S487.55,273.15,487.55,273.15Z" style="fill:#fff"></path><path d="M487.55,319.54s-1.25,5-5.19,7.67-9.08,1.83-9.08,1.83,1.26-5,5.19-7.66S487.55,319.54,487.55,319.54Z" style="fill:#fff"></path><path d="M394.41,319.54s1.25,5,5.19,7.67,9.07,1.83,9.07,1.83-1.25-5-5.18-7.66S394.41,319.54,394.41,319.54Z" style="fill:#fff"></path><path d="M468,300.29s.52,5.17-2.31,9-7.92,4.78-7.92,4.78-.52-5.17,2.3-9S468,300.29,468,300.29Z" style="fill:#fff"></path><path d="M463.57,223.41s.52,5.17-2.31,9-7.93,4.78-7.93,4.78-.52-5.17,2.31-9S463.57,223.41,463.57,223.41Z" style="fill:#fff"></path><path d="M453.46,243.18s.52,5.17-2.3,9-7.93,4.78-7.93,4.78-.52-5.17,2.31-9S453.46,243.18,453.46,243.18Z" style="fill:#fff"></path><path d="M477.45,228.78s.52,5.17-2.31,9-7.92,4.78-7.92,4.78-.52-5.17,2.3-9S477.45,228.78,477.45,228.78Z" style="fill:#fff"></path><path d="M399.5,228.78s-.52,5.17,2.31,9,7.93,4.78,7.93,4.78.52-5.17-2.31-9S399.5,228.78,399.5,228.78Z" style="fill:#fff"></path><path d="M465.76,199.25s.52,5.17-2.3,9-7.93,4.78-7.93,4.78-.52-5.17,2.31-9S465.76,199.25,465.76,199.25Z" style="fill:#fff"></path><path d="M460.8,173.58s1.8,4.87,0,9.26-6.47,6.61-6.47,6.61-1.81-4.87,0-9.25S460.8,173.58,460.8,173.58Z" style="fill:#fff"></path><path d="M425.22,166.88s4.6,2.41,6.21,6.85-.37,9.25-.37,9.25-4.6-2.41-6.22-6.86S425.22,166.88,425.22,166.88Z" style="fill:#fff"></path><path d="M441.81,197.57s3.28,4,3,8.75-4,8.35-4,8.35-3.28-4-3-8.75S441.81,197.57,441.81,197.57Z" style="fill:#fff"></path><path d="M440.93,151.88s3.28,4,3,8.75-4,8.35-4,8.35-3.28-4-3-8.75S440.93,151.88,440.93,151.88Z" style="fill:#fff"></path><path d="M403.69,249.33s-.52,5.17,2.31,9,7.92,4.78,7.92,4.78.53-5.17-2.3-9S403.69,249.33,403.69,249.33Z" style="fill:#fff"></path><path d="M394,277.44s-.52,5.17,2.3,9,7.93,4.78,7.93,4.78.52-5.17-2.31-9S394,277.44,394,277.44Z" style="fill:#fff"></path><path d="M419.68,287.65s-.52,5.17,2.31,9,7.92,4.77,7.92,4.77.53-5.17-2.3-9S419.68,287.65,419.68,287.65Z" style="fill:#fff"></path><path d="M426.7,248.69s-2,4.81-.36,9.25,6.23,6.85,6.23,6.85,2-4.8.35-9.25S426.7,248.69,426.7,248.69Z" style="fill:#fff"></path><path d="M408.53,352.36s5.19.09,8.75-3,4.11-8.3,4.11-8.3-5.2-.09-8.75,3S408.53,352.36,408.53,352.36Z" style="fill:#fff"></path><path d="M458.38,346.68s1.41,5,5.43,7.49,9.12,1.54,9.12,1.54-1.41-5-5.43-7.49S458.38,346.68,458.38,346.68Z" style="fill:#fff"></path><path d="M414.33,223.41s-.52,5.17,2.3,9,7.93,4.78,7.93,4.78.52-5.17-2.31-9S414.33,223.41,414.33,223.41Z" style="fill:#fff"></path><path d="M414.24,200.57s-.52,5.16,2.3,9,7.93,4.78,7.93,4.78.52-5.17-2.31-9S414.24,200.57,414.24,200.57Z" style="fill:#fff"></path></g><g id="freepik--character-2--inject-217"><path d="M437.66,487.5V477.38l4.08-42.73-69.94-1.91s-2.92,5.36-4.87,9.45-16.35,36.43-16.35,36.43l-2.22,8.88Z" style="fill:#263238"></path><path d="M437.66,488h-89.3a.51.51,0,0,1-.4-.19.51.51,0,0,1-.09-.43l2.22-8.88c.17-.41,14.45-32.48,16.39-36.53s4.85-9.42,4.88-9.47a.51.51,0,0,1,.45-.26l69.94,1.91a.58.58,0,0,1,.37.17.51.51,0,0,1,.12.38l-4.09,42.72V487.5A.5.5,0,0,1,437.66,488ZM349,487h88.16v-9.62l4-42.24-69.1-1.89c-.61,1.14-3,5.65-4.71,9.16-1.93,4-16.2,36.09-16.35,36.41Z" style="fill:#263238"></path><path d="M405.84,295s-8-3.93-14.45-2.86-15.16,2.68-20,2.68-16.05-2.14-16.05-2.14-1.61-3,4.46-8.56,12.48-11.95,12.84-14.09.71-3.57.71-3.57l-18.9,1.61s.35,2-1.43,6.06-16.38,13.29-21.9,22-5.08,7.5-1.52,12,12.53,8.21,28.73,10.44c21.1,2.9,35.35-1.27,35.35-1.27L407.09,298Z" style="fill:#fff"></path><path d="M373.11,320.08a108.29,108.29,0,0,1-14.82-1c-15.32-2.1-25.09-5.68-29.05-10.62-.36-.46-.7-.86-1-1.22-2.68-3.19-2.51-3.45,1.69-10.07l.79-1.25c3.11-4.92,9.13-10,14-14.14,3.84-3.28,7.16-6.1,7.91-7.82,1.68-3.87,1.4-5.76,1.39-5.78a.55.55,0,0,1,.1-.39.49.49,0,0,1,.35-.19L373.34,266a.49.49,0,0,1,.42.18.48.48,0,0,1,.11.44s-.36,1.44-.71,3.53c-.43,2.59-8.33,10.12-13,14.38s-4.59,7-4.41,7.75c1.78.33,11.38,2.08,15.67,2.08,4.14,0,11.42-1.24,17.27-2.23l2.62-.44c6.49-1.09,14.41,2.74,14.75,2.9a.47.47,0,0,1,.24.26l1.25,3a.52.52,0,0,1-.05.47l-13.38,19.27a.48.48,0,0,1-.27.19C393.75,317.8,385.77,320.08,373.11,320.08ZM355,268.52a14.74,14.74,0,0,1-1.49,5.81c-.84,1.93-4.08,4.69-8.19,8.18-4.77,4.07-10.72,9.13-13.75,13.92l-.79,1.24c-4,6.27-4,6.27-1.77,8.9l1,1.23c3.74,4.67,13.56,8.22,28.4,10.26,19.53,2.69,33.33-.76,35-1.2L406.52,298l-1.07-2.6c-1.18-.55-8.3-3.68-14-2.73l-2.63.44c-6.19,1.05-13.2,2.24-17.43,2.24-4.81,0-15.68-2.06-16.15-2.15a.47.47,0,0,1-.34-.26c-.08-.14-1.72-3.44,4.56-9.16,7.55-6.89,12.41-12.18,12.68-13.8.22-1.29.43-2.31.57-2.93Z" style="fill:#263238"></path><path d="M387.47,318.86a.51.51,0,0,1-.5-.43c-.69-5.2-6.12-14.89-6.18-15a.5.5,0,0,1,.19-.68.49.49,0,0,1,.68.19c.23.4,5.59,10,6.31,15.33a.51.51,0,0,1-.43.57Z" style="fill:#263238"></path><path d="M344.42,307a22.59,22.59,0,0,1-2.3-.12.5.5,0,0,1-.45-.55.51.51,0,0,1,.55-.45,21.62,21.62,0,0,0,3.19.09.5.5,0,0,1,.53.47.51.51,0,0,1-.47.53Z" style="fill:#263238"></path><path d="M347.73,306.72a.49.49,0,0,1-.49-.4.5.5,0,0,1,.39-.59,11,11,0,0,0,8-5.8c1.29-2.41-.34-5.56-.36-5.59a.51.51,0,0,1,.21-.68.52.52,0,0,1,.68.21c.08.15,1.89,3.66.35,6.53a12.09,12.09,0,0,1-8.7,6.31Z" style="fill:#263238"></path><path d="M400.15,234.15s-3.93,4.75-3.77,7.37,1,3.43-.32,5.07-4.75,2.95-4.42,4.91,3.43,3.44,3.43,3.44-1.47,2.13-1.14,3.27l.33,1.15s-1.64,2-1.31,2.95.81,2.45.81,2.45-1.31,4.75-.16,7,4.75,3.77,9,3.6,7.37,9.33,7.86,12.28.16,4.42-.49,5.4-8,1-14.08,6.06-8.67,11.29-10.15,25.7-4.58,58.76-4.58,58.76l-4.44,30.29-4.92,18.85s33.06,9,47.54,7.65,22.4-5.74,22.4-5.74-5.19-40.7-5.19-43.44,17.21-68.3,17.21-68.3,4.1-15.3,3-20.21-11.48-12.84-14.48-15.85-8.2-8.74-8.2-13.93,10.09-18.44,11.36-25a36.15,36.15,0,0,0,0-12.65s1.26,4.08,1.82,1.83-2.52-6-2.52-6,2.1.14,1.12-3-3.09-4.92-3.09-3.52a13,13,0,0,1-.14,2.81c-.14.42-2.25-.84-12.23-6.88s-20.93-4.5-21.63-3.65,1-3.38-2.67-1.13-9,6.89-8.43,12.08S400.15,234.15,400.15,234.15Z" style="fill:#fff"></path><path d="M416,441c-15.48,0-43.06-7.47-44.31-7.81a.5.5,0,0,1-.35-.61l4.92-18.85,4.43-30.23c0-.41,3.12-44.5,4.58-58.74s4.06-20.79,10.32-26c4.19-3.51,9-4.64,11.82-5.31a9,9,0,0,0,2.17-.65c.46-.69.93-1.89.41-5-.55-3.3-3.6-11.86-7.26-11.86h-.09c-4.42.16-8.22-1.39-9.47-3.88-1.11-2.22-.13-6.39.09-7.24l-.77-2.32c-.34-1,.75-2.59,1.23-3.21l-.25-.9c-.29-1,.46-2.47.91-3.22-.95-.54-2.93-1.85-3.22-3.55s1.23-2.66,2.68-3.72a10.78,10.78,0,0,0,1.85-1.58c.77-1,.68-1.53.47-2.74-.09-.53-.2-1.18-.26-2-.14-2.37,2.64-6.14,3.58-7.34-.65-.68-1.85-2.44-2.28-6.37-.54-5,4.12-9.77,8.67-12.56,1.19-.74,2-.92,2.59-.59a1.58,1.58,0,0,1,.64,1.45c2.82-1,12.7-1.47,21.59,3.91,6.71,4.07,10.44,6.32,11.56,6.79,0-.5,0-1.34,0-2.29s.52-.94.68-1c1-.16,2.6,1.87,3.39,4.33a3.18,3.18,0,0,1-.13,2.94,1.63,1.63,0,0,1-.61.48c.9,1.23,2.63,3.93,2.15,5.85-.06.26-.26,1-.91,1a.69.69,0,0,1-.5-.16,36.11,36.11,0,0,1-.41,9.9c-.62,3.24-3.28,8-5.85,12.57-2.7,4.81-5.5,9.8-5.5,12.38,0,3.67,2.71,8.24,8.05,13.58.69.69,1.79,1.65,3.07,2.78,4.5,4,10.67,9.38,11.54,13.31,1.11,5-2.84,19.82-3,20.45-4.78,18.22-17.19,66-17.19,68.17,0,2.67,5.13,43,5.19,43.38a.52.52,0,0,1-.26.5c-.08,0-8.18,4.44-22.6,5.8C418.34,441,417.2,441,416,441Zm-43.57-8.64c4.12,1.09,33.61,8.76,46.88,7.5,12.66-1.19,20.34-4.74,21.91-5.52-.54-4.23-5.15-40.53-5.15-43.16s16.52-65.74,17.23-68.42c0-.16,4.05-15.24,3-20-.8-3.61-7.08-9.12-11.23-12.77-1.29-1.14-2.41-2.11-3.12-2.83-5.53-5.53-8.34-10.34-8.34-14.28,0-2.84,2.73-7.72,5.63-12.87,2.53-4.52,5.15-9.19,5.74-12.27a35.86,35.86,0,0,0,0-12.45.48.48,0,0,1,.36-.58.5.5,0,0,1,.61.33,8.72,8.72,0,0,0,.83,2l0-.11c.41-1.65-1.62-4.61-2.43-5.61a.49.49,0,0,1-.06-.54.52.52,0,0,1,.48-.27h0a.94.94,0,0,0,.66-.29,2.42,2.42,0,0,0-.05-2,7.76,7.76,0,0,0-2.11-3.54,11.55,11.55,0,0,1-.17,2.84.74.74,0,0,1-.36.38c-.62.23-1.21-.1-12.59-7-9.92-6-20.28-4.33-21-3.74a.57.57,0,0,1-.69.23c-.39-.14-.38-.54-.37-.9s0-.84-.14-.94c0,0-.35-.19-1.57.57-4.28,2.63-8.69,7.07-8.2,11.6.52,4.81,2.23,6,2.25,6a.49.49,0,0,1,.22.34.52.52,0,0,1-.11.4c-1,1.28-3.77,5-3.65,7a17.62,17.62,0,0,0,.24,1.88,3.69,3.69,0,0,1-.67,3.53,10.79,10.79,0,0,1-2,1.76c-1.2.88-2.44,1.8-2.28,2.76.23,1.4,2.36,2.69,3.16,3.07a.51.51,0,0,1,.27.32.54.54,0,0,1-.07.41c-.56.81-1.26,2.23-1.08,2.86l.33,1.14a.51.51,0,0,1-.1.46c-.61.73-1.38,2-1.22,2.47l.82,2.45a.57.57,0,0,1,0,.29c0,.05-1.25,4.59-.2,6.69s4.58,3.48,8.53,3.32h.13c4.66,0,7.77,9.87,8.24,12.7s.28,4.49-.56,5.76c-.32.48-1.19.68-2.77,1.06-2.76.65-7.4,1.74-11.41,5.1-6,5.06-8.55,11.46-10,25.37-1.46,14.23-4.55,58.31-4.58,58.75L377.21,414Zm70.88-207.95Z" style="fill:#263238"></path><path d="M420.86,250.12c.84.71,1.26,2.25,2.11.43s2.81-5.06,7.58-3.8,3.94,6.33,3.1,9.42c-.78,2.82,0,11.65,1.19,13.56,2.36-6.22,9.55-16.35,10.61-21.85a36.15,36.15,0,0,0,0-12.65s1.26,4.08,1.82,1.83-2.52-6-2.52-6,2.1.14,1.12-3-3.09-4.92-3.09-3.52a13,13,0,0,1-.14,2.81c-.14.42-2.25-.84-12.23-6.88s-20.93-4.5-21.63-3.65,1-3.38-2.67-1.13-9,6.89-8.43,12.08,2.37,6.31,2.46,6.36-.2-.43,5-3.55c5.62-3.37,14.05-.28,10.68,3.24s-1,4.77,2.53,7.3S420,249.42,420.86,250.12Z" style="fill:#263238"></path><path d="M434.84,270.23a.5.5,0,0,1-.42-.23c-1.26-2-2.07-11-1.26-14s.85-5.37,0-6.87a4.15,4.15,0,0,0-2.72-1.92c-3.22-.86-5.52.29-7,3.52-.23.49-.56,1.07-1.11,1.14s-.91-.38-1.25-.82a4.15,4.15,0,0,0-.52-.57h0c-.46-.39-.45-1.2-.43-2.43,0-2,.07-5-2.07-6.54l-.7-.5c-2-1.39-3.51-2.49-3.65-4-.1-1.05.46-2.17,1.75-3.52.73-.76.83-1.46.3-2.13-1.4-1.74-6.59-2.59-10.36-.33s-4.55,3-4.75,3.2a.58.58,0,0,1-.08.22.5.5,0,0,1-.68.12c-.22-.13-2.13-1.5-2.69-6.72-.54-5,4.12-9.77,8.67-12.56,1.19-.74,2-.92,2.59-.59a1.6,1.6,0,0,1,.64,1.45c2.82-1,12.7-1.47,21.59,3.91,6.71,4.07,10.44,6.32,11.56,6.79,0-.5,0-1.34,0-2.29s.52-.94.68-1c1-.16,2.6,1.87,3.39,4.33a3.18,3.18,0,0,1-.13,2.94,1.63,1.63,0,0,1-.61.48c.9,1.23,2.63,3.93,2.15,5.85-.06.26-.26,1-.91,1a.74.74,0,0,1-.5-.16,36.11,36.11,0,0,1-.41,9.9c-.62,3.24-3.28,8-5.85,12.57a79.69,79.69,0,0,0-4.78,9.37.52.52,0,0,1-.42.32ZM428.54,246a8.19,8.19,0,0,1,2.14.3,5.16,5.16,0,0,1,3.33,2.39c1,1.74,1,4.24.12,7.64-.63,2.31-.15,9.17.71,12.11,1.07-2.46,2.68-5.34,4.38-8.36,2.53-4.52,5.15-9.19,5.74-12.27a35.86,35.86,0,0,0,0-12.45.48.48,0,0,1,.36-.58.5.5,0,0,1,.61.33,8.72,8.72,0,0,0,.83,2l0-.11c.41-1.65-1.62-4.61-2.43-5.61a.49.49,0,0,1-.06-.54.52.52,0,0,1,.48-.27h0a.94.94,0,0,0,.66-.29,2.42,2.42,0,0,0-.05-2,7.76,7.76,0,0,0-2.11-3.54,11.55,11.55,0,0,1-.17,2.84.74.74,0,0,1-.36.38c-.62.23-1.21-.1-12.59-7-9.92-6-20.28-4.33-21-3.74a.57.57,0,0,1-.69.23c-.39-.14-.38-.54-.37-.9s0-.84-.14-.94c0,0-.35-.19-1.57.57-4.28,2.63-8.69,7.07-8.2,11.6.38,3.46,1.36,5,1.89,5.66a33.44,33.44,0,0,1,4.81-3.22c4.08-2.45,9.82-1.74,11.65.56a2.44,2.44,0,0,1-.36,3.44c-1.06,1.11-1.54,2-1.48,2.73.11,1.1,1.49,2.08,3.24,3.32l.7.51c2.57,1.85,2.52,5.16,2.49,7.36a6.21,6.21,0,0,0,.09,1.67,4.61,4.61,0,0,1,.64.7,3.89,3.89,0,0,0,.36.41,2.1,2.1,0,0,0,.31-.53C424.08,246.94,426.4,246,428.54,246Zm-7.34,3.79h0Z" style="fill:#263238"></path><path d="M425.5,249.7s3.93-4.07,6.74-2,1.12,8.29-.56,9.83-7.17,4.36-8.29,2" style="fill:#fff"></path><path d="M425.15,261a3.63,3.63,0,0,1-.67-.06,2,2,0,0,1-1.54-1.15.49.49,0,0,1,.24-.66.5.5,0,0,1,.66.24,1.06,1.06,0,0,0,.84.59c1.86.36,5.42-1.58,6.66-2.72,1-.9,2-3.69,1.89-6.06a3.9,3.9,0,0,0-1.29-3c-2.42-1.82-6.05,1.87-6.08,1.91a.5.5,0,0,1-.71,0,.49.49,0,0,1,0-.7c.17-.18,4.28-4.37,7.4-2a4.75,4.75,0,0,1,1.69,3.75c.14,2.72-1.06,5.79-2.21,6.85S427.47,261,425.15,261Z" style="fill:#263238"></path><path d="M409.06,243a1,1,0,0,1-.56-.18,6.69,6.69,0,0,0-7-.7,1,1,0,0,1-1-1.72,8.65,8.65,0,0,1,9.13.77,1,1,0,0,1,.27,1.39A1,1,0,0,1,409.06,243Z" style="fill:#263238"></path><path d="M403.88,247.3a4.52,4.52,0,0,1-3.15-1,.48.48,0,0,1,0-.7.49.49,0,0,1,.7,0c.08.07,1.86,1.72,5.88-.1a.5.5,0,0,1,.41.92A9.52,9.52,0,0,1,403.88,247.3Z" style="fill:#263238"></path><path d="M402.6,275.4s7.58.58,11.66-3.22c0,0-3.24,7.17-5.9,8.86C408.36,281,405.56,275.25,402.6,275.4Z" style="fill:#263238"></path><path d="M408.36,281.54l-.14,0a.49.49,0,0,1-.31-.27c-.7-1.43-2.84-5-4.89-5.33l-.45,0a.5.5,0,0,1-.47-.5.51.51,0,0,1,.48-.5,2.79,2.79,0,0,1,.5,0c1.64.06,7.52,0,10.84-3.1a.5.5,0,0,1,.79.57c-.13.3-3.32,7.32-6.09,9.07A.5.5,0,0,1,408.36,281.54Zm-3.22-5.64a15.19,15.19,0,0,1,3.39,4.39c1.59-1.35,3.35-4.48,4.38-6.49A17.73,17.73,0,0,1,405.14,275.9Z" style="fill:#263238"></path><path d="M444.56,288.93a32.44,32.44,0,0,0-5.15,1.66c-3.8,1.55-18.83,14.05-25.58,18.83s-13.06,6.74-15.31,2.39,2-10.54,3.51-13.21,5.2-3,6.75-4.22a4.45,4.45,0,0,0,1.08-1.21c-1.06.9-8.12,1.06-14,6-6.05,5.07-8.67,11.29-10.15,25.7s-4.58,58.76-4.58,58.76l-4.44,30.29-4.92,18.85s33.06,9,47.54,7.65,22.4-5.74,22.4-5.74-5.19-40.7-5.19-43.44,17.21-68.3,17.21-68.3,4.1-15.3,3-20.21C455.87,298.67,448.76,292.64,444.56,288.93Z" style="fill:#00FF88"></path><path d="M416,441c-15.48,0-43.06-7.47-44.31-7.81a.5.5,0,0,1-.35-.61l4.92-18.85,4.43-30.23c0-.41,3.12-44.5,4.58-58.74s4.06-20.79,10.32-26c4.19-3.51,9-4.64,11.81-5.31a9.34,9.34,0,0,0,2.16-.65.51.51,0,0,1,.65,0,.5.5,0,0,1,.1.64,5.25,5.25,0,0,1-1.2,1.34,9,9,0,0,1-2.43,1.22c-1.54.61-3.29,1.3-4.2,2.86-.14.26-.32.54-.5.86-1.72,2.86-4.9,8.17-3,11.87a3.69,3.69,0,0,0,2.5,2c2.7.66,7-1,12.09-4.57,2.46-1.74,6-4.5,9.76-7.42,6.61-5.14,13.44-10.46,15.91-11.46a32.53,32.53,0,0,1,5.23-1.69.54.54,0,0,1,.44.11l.81.72c4.25,3.74,10.68,9.38,11.55,13.32,1.11,5-2.84,19.82-3,20.45-4.78,18.22-17.19,66-17.19,68.17,0,2.67,5.13,43,5.19,43.38a.52.52,0,0,1-.26.5c-.08,0-8.18,4.44-22.6,5.8C418.34,441,417.2,441,416,441Zm-43.57-8.64c4.12,1.09,33.61,8.76,46.88,7.5,12.66-1.19,20.34-4.74,21.91-5.52-.54-4.23-5.15-40.53-5.15-43.16s16.52-65.74,17.23-68.42c0-.16,4.05-15.24,3-20-.81-3.61-7.09-9.13-11.24-12.78l-.62-.55a32.91,32.91,0,0,0-4.83,1.58c-2.34,1-9.42,6.47-15.67,11.33-3.76,2.92-7.32,5.69-9.8,7.45-5.33,3.77-9.91,5.45-12.89,4.73a4.67,4.67,0,0,1-3.15-2.52c-2.17-4.19,1.21-9.82,3-12.84.18-.32.35-.6.5-.85,1.07-1.86,3.08-2.65,4.7-3.29a14.66,14.66,0,0,0,1.66-.73l-.35.08c-2.76.66-7.39,1.75-11.4,5.11-6,5.06-8.55,11.46-10,25.37-1.46,14.23-4.55,58.31-4.58,58.75L377.21,414Z" style="fill:#263238"></path><path d="M429.82,379.41a.45.45,0,0,1-.25-.07,24.52,24.52,0,0,1-3.92-2.95.49.49,0,0,1,0-.7.51.51,0,0,1,.71-.05,23.7,23.7,0,0,0,3.76,2.84.5.5,0,0,1-.25.93Z" style="fill:#263238"></path><path d="M424,374.67a.52.52,0,0,1-.35-.14c-9.31-9.17-21-26.25-21.12-26.42a.51.51,0,0,1,.14-.7.51.51,0,0,1,.69.13c.12.18,11.76,17.18,21,26.27a.5.5,0,0,1-.35.86Z" style="fill:#263238"></path><path d="M421.67,435.85h-.1c-2.95-.6-5.94-1.29-8.87-2.06a.5.5,0,0,1,.25-1c2.92.77,5.89,1.45,8.82,2.05a.5.5,0,0,1-.1,1Z" style="fill:#263238"></path><path d="M407.86,432.42a.4.4,0,0,1-.15,0,133.48,133.48,0,0,1-23.1-9,.51.51,0,0,1-.2-.68.5.5,0,0,1,.68-.2,132.46,132.46,0,0,0,22.91,8.9.49.49,0,0,1,.33.62A.5.5,0,0,1,407.86,432.42Z" style="fill:#263238"></path><path d="M415.94,436.45h0c-9.93-.3-28.07-7.28-28.84-7.58a.49.49,0,0,1-.28-.64.5.5,0,0,1,.65-.29c.18.07,18.74,7.22,28.5,7.51a.51.51,0,0,1,.49.52A.5.5,0,0,1,415.94,436.45Z" style="fill:#263238"></path><path d="M363.39,277.25a4.24,4.24,0,0,1-4.09-3.86c-.31-2.57,5.26-4.7,5.9-4.94a.5.5,0,0,1,.34.94c-2.27.84-5.4,2.6-5.25,3.88a3.25,3.25,0,0,0,3.1,3,.5.5,0,0,1,.5.5A.5.5,0,0,1,363.39,277.25Z" style="fill:#263238"></path><path d="M386.83,256.63c.39,4.17-.08,7.63-1.06,7.72s-2.08-3.22-2.47-7.39.08-7.62,1.05-7.72S386.43,252.46,386.83,256.63Z" style="fill:#fff"></path><path d="M385.74,264.85c-1.73,0-2.66-4.9-2.94-7.84s-.28-8.09,1.5-8.26c.78-.08,1.41.72,2,2.43a25.58,25.58,0,0,1,1.05,5.4h0a25.74,25.74,0,0,1,0,5.51c-.24,1.78-.73,2.68-1.49,2.76Zm-1.36-15.11c-.4.21-1,2.86-.58,7.18s1.48,6.81,1.95,6.93c.39-.21,1-2.85.58-7.17h0C385.92,252.36,384.84,249.87,384.38,249.74Z" style="fill:#263238"></path><path d="M391.36,256.2c-.39-4.17-1.5-7.47-2.47-7.38l-4.54.42,1.42,15.11,4.54-.43C391.29,263.83,391.76,260.37,391.36,256.2Z" style="fill:#00FF88"></path><path d="M385.77,264.85a.5.5,0,0,1-.49-.46l-1.43-15.1a.48.48,0,0,1,.12-.36.44.44,0,0,1,.33-.18l4.54-.43h.09c1.73,0,2.65,4.9,2.93,7.84h0a25.07,25.07,0,0,1,0,5.5c-.25,1.79-.73,2.69-1.49,2.76l-4.54.43Zm-.87-15.15,1.33,14.1,4-.38c.42-.2,1-2.85.61-7.17h0c-.41-4.32-1.49-6.81-1.95-6.93Z" style="fill:#263238"></path><path d="M339.61,251.5a6,6,0,0,1,2.3-.82c1.45-.23,39.36-2.55,40.87-2.2s1.57.76,1.57.76l1.42,15.11a5,5,0,0,1-3,1.52c-2.2.41-39.42,2.55-40.17,2.67s-1-.3-1.35-.21S339.61,251.5,339.61,251.5Z" style="fill:#fff"></path><path d="M342.29,269.06a2.17,2.17,0,0,1-.82-.18l-.16-.06a.52.52,0,0,1-.42-.09c-.24-.17-.59-.43-1.78-17.2a.5.5,0,0,1,.22-.44,6.52,6.52,0,0,1,2.5-.9c.3-.05,39.18-2.63,41.06-2.2,1.52.35,1.9.84,2,1.18l1.42,15.13a.44.44,0,0,1-.1.35,5.48,5.48,0,0,1-3.36,1.71c-1.49.28-17.88,1.28-29.84,2-5.39.33-10.05.61-10.35.65Zm-.73-1.21.29.1a.93.93,0,0,0,.62.09c.27,0,3.76-.25,10.44-.66,11.26-.69,28.29-1.74,29.72-2a5,5,0,0,0,2.63-1.21l-1.39-14.75a3.05,3.05,0,0,0-1.2-.45c-1.49-.29-39,1.93-40.68,2.21a6,6,0,0,0-1.86.6C340.54,257.44,341.23,266.16,341.56,267.85Zm42.34-18.4Z" style="fill:#263238"></path><path d="M363.84,249.13a4,4,0,0,0-1.8-1.71c-1.08-.36-4-.18-3.68.81l.26,1Z" style="fill:#fff"></path><path d="M358.62,249.72a.5.5,0,0,1-.48-.37l-.27-1a1,1,0,0,1,.29-1c.81-.77,3.14-.75,4-.45a4.34,4.34,0,0,1,2.08,2,.48.48,0,0,1,0,.49.47.47,0,0,1-.42.24l-5.22.09Zm2.09-2a3.27,3.27,0,0,0-1.88.39l.17.58,3.89-.07a2.32,2.32,0,0,0-1-.75A3.74,3.74,0,0,0,360.71,247.75Z" style="fill:#263238"></path><path d="M371.22,248.59s-2-1.89-3.69-1.53c-1.32.28-.9,2-.9,2Z" style="fill:#fff"></path><path d="M366.63,249.54a.48.48,0,0,1-.48-.38,2.66,2.66,0,0,1,.21-1.87,1.64,1.64,0,0,1,1.07-.72c1.94-.4,4.05,1.58,4.13,1.66a.49.49,0,0,1,.13.52.5.5,0,0,1-.42.34l-4.59.45Zm1.35-2a2.07,2.07,0,0,0-.35,0,.63.63,0,0,0-.42.27,1.21,1.21,0,0,0-.14.68l2.84-.28A3.81,3.81,0,0,0,368,247.52Z" style="fill:#263238"></path><path d="M377.16,248.41s-2-1.89-3.69-1.53c-1.32.28-.9,2-.9,2Z" style="fill:#fff"></path><path d="M372.57,249.36a.5.5,0,0,1-.49-.38,2.74,2.74,0,0,1,.22-1.87,1.61,1.61,0,0,1,1.07-.72c1.93-.4,4,1.58,4.13,1.66a.52.52,0,0,1,.13.53.5.5,0,0,1-.42.33l-4.59.45Zm1.34-2a2,2,0,0,0-.34,0,.6.6,0,0,0-.42.27,1.31,1.31,0,0,0-.15.68l2.85-.28A3.85,3.85,0,0,0,373.91,247.34Z" style="fill:#263238"></path><path d="M374.19,263.93a.57.57,0,0,1-.18,0,.5.5,0,0,1-.29-.65s1.09-2.8,2-5.55.52-7.67.52-7.72a.5.5,0,1,1,1-.07c0,.21.35,5.25-.57,8.1s-2,5.58-2,5.61A.49.49,0,0,1,374.19,263.93Z" style="fill:#263238"></path><path d="M367.71,256.74a.47.47,0,0,1-.17,0,.52.52,0,0,1-.3-.65s.29-.75.83-1.92c.29-.64-.5-2.48-1.15-3.58a.51.51,0,0,1,.18-.69.5.5,0,0,1,.68.18c.31.51,1.81,3.17,1.19,4.51-.52,1.13-.79,1.85-.79,1.85A.52.52,0,0,1,367.71,256.74Z" style="fill:#263238"></path><path d="M365.55,255.12a.51.51,0,0,1-.5-.45,14.54,14.54,0,0,0-1.47-4,.5.5,0,0,1,.88-.48,15.46,15.46,0,0,1,1.59,4.42.5.5,0,0,1-.45.55Z" style="fill:#263238"></path><path d="M360.65,257.73a.5.5,0,0,1-.17,0c-.24-.06-.44-.24-1.84-1.61a28,28,0,0,0-3.93-3.46.51.51,0,0,1-.22-.67.5.5,0,0,1,.67-.23,25.86,25.86,0,0,1,4.18,3.65c.46.45,1,.94,1.26,1.21a3.72,3.72,0,0,0,.22-1.68,16.44,16.44,0,0,0-1.3-4,.5.5,0,0,1,.25-.66.49.49,0,0,1,.66.25,17.88,17.88,0,0,1,1.39,4.31,3.53,3.53,0,0,1-.69,2.69A.76.76,0,0,1,360.65,257.73Z" style="fill:#263238"></path><path d="M354.85,266.27h-.13a.51.51,0,0,1-.36-.61c.51-2,1.23-5.51,1-6.4s-2.36-3.32-3.65-4.64a.5.5,0,1,1,.72-.7c.36.37,3.52,3.64,3.9,5.08s-.85,6.35-1,6.91A.5.5,0,0,1,354.85,266.27Z" style="fill:#263238"></path><path d="M391.1,253.81h2.61a5.44,5.44,0,0,1,.9,3.06,7.77,7.77,0,0,1-.63,3.51l-2.61.36S391.91,255.79,391.1,253.81Z" style="fill:#00FF88"></path><path d="M391.37,261.24a.47.47,0,0,1-.35-.15.51.51,0,0,1-.15-.41c0-.05.52-4.84-.23-6.68a.49.49,0,0,1,0-.47.51.51,0,0,1,.42-.22h2.61a.49.49,0,0,1,.38.18,5.94,5.94,0,0,1,1,3.36,8.32,8.32,0,0,1-.68,3.75.5.5,0,0,1-.38.27l-2.61.36Zm.41-6.93a22.92,22.92,0,0,1,.15,5.84l1.7-.23a7.74,7.74,0,0,0,.48-3,5.56,5.56,0,0,0-.67-2.58Z" style="fill:#263238"></path><path d="M388.94,480.86a.5.5,0,0,1-.5-.48,214.64,214.64,0,0,1,.69-23.42c.31-4.72.64-9.61.75-14.43a.51.51,0,0,1,.5-.49h0a.5.5,0,0,1,.48.52c-.12,4.84-.44,9.73-.75,14.47a212.78,212.78,0,0,0-.69,23.31.5.5,0,0,1-.48.52Z" style="fill:#8a8a8a"></path><path d="M384.52,482.5a.5.5,0,0,1-.44-.27c-2.84-5.31-8.17-23.32-8.39-24.08a.49.49,0,0,1,.34-.62.5.5,0,0,1,.62.33c.05.19,5.52,18.68,8.31,23.9a.5.5,0,0,1-.21.68A.46.46,0,0,1,384.52,482.5Z" style="fill:#8a8a8a"></path><path d="M342.43,257.14l-2.39.12c.39,4.9.92,11.13,1.16,11.07s.6.32,1.35.21,38-2.26,40.17-2.67a5,5,0,0,0,3-1.52l-.67-7.12Z" style="fill:#00FF88"></path><path d="M342.29,269.06a2.17,2.17,0,0,1-.82-.18l-.16-.06a.53.53,0,0,1-.42-.09c-.27-.19-.48-.35-1.34-11.43a.52.52,0,0,1,.12-.37.51.51,0,0,1,.35-.17l2.39-.12h0l42.67.09a.49.49,0,0,1,.5.45l.67,7.12a.44.44,0,0,1-.1.35,5.48,5.48,0,0,1-3.36,1.71c-1.49.28-17.88,1.28-29.84,2-5.39.33-10.05.61-10.35.65Zm-.73-1.21.29.1a.93.93,0,0,0,.62.09c.27,0,3.76-.25,10.44-.66,11.26-.69,28.29-1.74,29.72-2a5,5,0,0,0,2.63-1.21l-.61-6.44-42.2-.09-1.87.1C341.16,265,341.44,267.21,341.56,267.85Z" style="fill:#263238"></path><path d="M366.47,277.61s6.16-4.62,7.57-6.41,1.23-2.1,1-2.82-1-1.53-1.53-3-2.7-2.16-3.51.27a5,5,0,0,0,.54,4.59,2.14,2.14,0,0,1,.36,1.08" style="fill:#fff"></path><path d="M366.47,278.11a.5.5,0,0,1-.3-.9c.06,0,6.12-4.6,7.47-6.32,1.2-1.52,1.11-1.74.91-2.26a6.41,6.41,0,0,0-.5-1,11.57,11.57,0,0,1-1.05-2.07,1.51,1.51,0,0,0-1.31-1h0c-.53,0-1,.46-1.24,1.25a4.55,4.55,0,0,0,.49,4.15,2.63,2.63,0,0,1,.44,1.36.5.5,0,0,1-1,0h0a1.65,1.65,0,0,0-.28-.8,5.6,5.6,0,0,1-.59-5c.57-1.72,1.7-1.93,2.17-1.94h0a2.52,2.52,0,0,1,2.25,1.65,10.75,10.75,0,0,0,1,1.9,5.84,5.84,0,0,1,.56,1.07c.38,1,.38,1.5-1,3.29s-7.41,6.32-7.66,6.51A.47.47,0,0,1,366.47,278.11Z" style="fill:#263238"></path><path d="M342.37,259.73c.44,4.65-.09,8.5-1.17,8.6s-2.32-3.58-2.76-8.23.09-8.5,1.17-8.6S341.93,255.08,342.37,259.73Z" style="fill:#fff"></path><path d="M341.15,268.83c-.77,0-1.44-.87-2-2.67a28.62,28.62,0,0,1-1.16-6c-.31-3.31-.32-9,1.62-9.15.81-.07,1.52.8,2.15,2.67a28.62,28.62,0,0,1,1.16,6h0c.31,3.31.32,9-1.62,9.15ZM339.65,252c-.48.15-1.18,3.14-.71,8.05s1.71,7.72,2.22,7.78c.48-.15,1.18-3.14.71-8.05h0C341.41,254.87,340.16,252.06,339.65,252Z" style="fill:#263238"></path><path d="M448.28,292.5s-7.31.36-15,11.41-7.49,25.33-3.56,31.75a58.51,58.51,0,0,0,8.91,11.06l6.42,31.38s-5.52,19.44-6.77,27.29-15.7,38.52-15.88,39.06-10.16,12.66-10.34,14.09-3.92,11.06-4.81,13,0,2.49,2,2,4.46-3.39,4.46-3.39-1.07,7-1.43,8.92-3,2-2,3.74,6.24-.53,7.13-.89,9.63-1.07,12.13-3.21a17.75,17.75,0,0,0,5.35-10c.36-3.39.71-14.62,1.78-19.79s24.44-39.42,27.47-48,4.63-21,4.28-23.18,0-37.28-.72-49.05-5.88-24.43-8.91-28.89S448.28,292.5,448.28,292.5Z" style="fill:#fff"></path><path d="M411.91,484a2.19,2.19,0,0,1-2-.91c-.82-1.37.09-2.09.76-2.61a2.54,2.54,0,0,0,1.14-1.48c.25-1.36.85-5.19,1.18-7.36a9.86,9.86,0,0,1-3.59,2.4c-1.31.36-2.17.27-2.64-.27s-.4-1.29.09-2.38c.89-2,4.61-11.52,4.77-12.87.12-.92,2.68-4.33,7.69-10.71,1.32-1.69,2.57-3.28,2.7-3.52,0-.05.16-.37.88-1.95,9.22-20.13,14.25-32.57,14.95-37,1.19-7.47,6.3-25.59,6.76-27.23L438.2,347a59.38,59.38,0,0,1-8.89-11.05c-4.26-7-3.83-21.6,3.58-32.29C440.61,292.5,448,292,448.26,292a.44.44,0,0,1,.2,0c.32.12,7.68,3,10.76,7.5,3.33,4.9,8.31,17.75,9,29.14.42,6.86.47,21.44.51,33.15,0,8,.06,15,.2,15.85.36,2.16-1.2,14.66-4.3,23.43-1.56,4.4-8.29,15.29-14.81,25.82-6,9.65-12.13,19.63-12.64,22.09a132.84,132.84,0,0,0-1.42,14.78c-.13,2.1-.24,3.91-.35,5a18.28,18.28,0,0,1-5.53,10.31c-1.95,1.67-7.19,2.47-10.32,2.95-.87.14-1.76.27-1.94.34l-.25.11A16.38,16.38,0,0,1,411.91,484Zm1.78-14.33a.54.54,0,0,1,.21.05.5.5,0,0,1,.28.53c0,.07-1.07,7-1.43,8.93a3.39,3.39,0,0,1-1.5,2.08c-.72.57-.88.73-.52,1.32.23.38,1.3,1.06,6.26-1l.26-.1a14.54,14.54,0,0,1,2.16-.41c2.83-.43,8.09-1.23,9.82-2.72a17.39,17.39,0,0,0,5.18-9.66c.11-1,.22-2.83.35-4.92.29-4.77.69-11.31,1.44-14.92.55-2.64,6.49-12.24,12.77-22.41,6.49-10.49,13.2-21.34,14.72-25.63,3-8.47,4.59-20.91,4.25-22.94-.14-.89-.17-6.38-.21-16,0-11.71-.09-26.27-.5-33.1-.74-12.14-6.12-24.64-8.84-28.64s-9.27-6.72-10.18-7.08c-.88.1-7.56,1.19-14.5,11.19-7.84,11.31-7.1,25.39-3.55,31.2a59.17,59.17,0,0,0,8.83,11,.46.46,0,0,1,.15.27L445.56,378a.39.39,0,0,1,0,.24c-.05.2-5.53,19.5-6.76,27.23-.71,4.5-5.77,17-15,37.25-.51,1.1-.82,1.78-.86,1.9a37.29,37.29,0,0,1-2.85,3.77c-2.55,3.25-7.3,9.31-7.47,10.21-.2,1.55-4,11.26-4.86,13.16-.35.77-.35,1.18-.23,1.32s.62.23,1.61,0c1.79-.49,4.19-3.21,4.21-3.24A.52.52,0,0,1,413.69,469.63Z" style="fill:#263238"></path><path d="M438.65,347.22a.51.51,0,0,1-.49-.41l-2.35-12.76a21.25,21.25,0,0,1-5.49-5.56.49.49,0,0,1,.14-.69.5.5,0,0,1,.69.14,20.23,20.23,0,0,0,5.38,5.38.54.54,0,0,1,.23.34l2.39,13a.5.5,0,0,1-.4.58Z" style="fill:#263238"></path><path d="M417.43,482.4a.49.49,0,0,1-.3-.1.51.51,0,0,1-.1-.7s2.37-3.21,2.74-4.87,1.76-8.81,1.78-8.88a.5.5,0,0,1,1,.19c0,.08-1.39,7.15-1.78,8.91s-2.81,5.11-2.92,5.25A.49.49,0,0,1,417.43,482.4Z" style="fill:#263238"></path><path d="M423.42,481.1a.46.46,0,0,1-.29-.1.49.49,0,0,1-.11-.7,8.1,8.1,0,0,0,1.48-3.66c0-1.81,1.72-8.9,1.8-9.21a.49.49,0,0,1,.6-.36.5.5,0,0,1,.37.6c0,.07-1.77,7.28-1.77,9a9,9,0,0,1-1.67,4.25A.49.49,0,0,1,423.42,481.1Z" style="fill:#263238"></path><path d="M426.78,480.31a.5.5,0,0,1-.19-1s1.75-.86,2.47-5a41.86,41.86,0,0,1,2-7.61.5.5,0,0,1,.93.38,40.7,40.7,0,0,0-1.95,7.41c-.83,4.76-3,5.67-3.07,5.71A.65.65,0,0,1,426.78,480.31Z" style="fill:#263238"></path><path d="M413.69,470.63h-.07a.49.49,0,0,1-.43-.56l1.43-10.48a.5.5,0,0,1,1,.13l-1.44,10.49A.5.5,0,0,1,413.69,470.63Z" style="fill:#263238"></path></g><g id="freepik--character-1--inject-217"><path d="M132.13,130.86s3.47,1.59,8.19-2.13,17.67-9.95,20.9.72-1.24,18.12-4.72,20.1-14.14-1.49-17.12-5.71S127.66,133.84,132.13,130.86Z" style="fill:#263238"></path><path d="M153.71,150.61c-4.82,0-12.28-3-14.74-6.48a33.75,33.75,0,0,0-3.49-3.86c-2.61-2.63-5.31-5.35-5.08-7.64a2.93,2.93,0,0,1,1.45-2.18.51.51,0,0,1,.49,0h0c.13.05,3.28,1.39,7.67-2.08,3.66-2.89,11-6.58,16.37-4.91,2.6.82,4.39,2.8,5.32,5.88,3.17,10.51-1,18.42-4.95,20.68A6.16,6.16,0,0,1,153.71,150.61ZM132.2,131.42a1.92,1.92,0,0,0-.81,1.31c-.18,1.82,2.46,4.48,4.8,6.84a35.24,35.24,0,0,1,3.6,4c2.81,4,13.13,7.47,16.47,5.57,2.89-1.65,7.78-8.6,4.48-19.53-.83-2.75-2.4-4.5-4.66-5.21-4.92-1.55-12.09,2.08-15.45,4.74C136.44,132.42,133.16,131.74,132.2,131.42Z" style="fill:#263238"></path><path d="M121.45,487.5H246.72l-6.18-46.16c0-2.15-1.84-43.42-.5-55.2s7.77-16.6,6.16-30.26-30.52-63.19-30.52-63.19-10.45-19-20.09-26.78-18.2-9.91-24.9-9.91S122,279.3,118.21,288.14s11,142.71,11,142.71Z" style="fill:#00FF88"></path><path d="M246.72,488H121.45a.5.5,0,0,1-.5-.57l7.73-56.58C128,424.54,114,296.76,117.75,287.94c3.85-9.06,45.77-32.44,52.94-32.44,8.48,0,17,3.38,25.22,10,9.6,7.74,20.1,26.74,20.2,26.93,1.18,2,29,49.77,30.59,63.37,1,8.26-.93,13.27-2.94,18.57a46.19,46.19,0,0,0-3.22,11.8c-1.1,9.72,0,39.62.36,50.88.09,2.34.14,3.89.14,4.27l6.17,46.09a.49.49,0,0,1-.49.57ZM122,487H246.15l-6.1-45.6c0-.42-.06-2-.15-4.29-.4-11.28-1.47-41.24-.35-51a46.47,46.47,0,0,1,3.28-12c2-5.19,3.82-10.09,2.87-18.1-1.57-13.4-30.17-62.51-30.46-63-.11-.2-10.51-19-20-26.64-8.07-6.5-16.34-9.8-24.59-9.8-6.46,0-48.31,23.09-52,31.83s10.87,141.13,11,142.47a.49.49,0,0,1,0,.12Z" style="fill:#263238"></path><path d="M204.32,466.17a.47.47,0,0,1-.17,0q-2.79-1-5.57-2.11a.5.5,0,0,1-.29-.64.5.5,0,0,1,.65-.29q2.77,1.09,5.55,2.1a.5.5,0,0,1-.17,1Z" style="fill:#263238"></path><path d="M195.08,462.61a.39.39,0,0,1-.18,0A515.4,515.4,0,0,1,146,439.29a.5.5,0,1,1,.48-.87,522.34,522.34,0,0,0,48.81,23.23.5.5,0,0,1,.28.65A.51.51,0,0,1,195.08,462.61Z" style="fill:#263238"></path><path d="M163.75,453.45h-.09c-3.76-.68-23.94-6.63-24.8-6.88a.5.5,0,1,1,.28-1c.21.06,21,6.19,24.7,6.86a.5.5,0,0,1-.09,1Z" style="fill:#263238"></path><path d="M180.94,404.29a.5.5,0,0,1-.08-1c2.17-.35,4.31-.77,6.35-1.27a.52.52,0,0,1,.61.37.51.51,0,0,1-.37.61c-2.07.5-4.24.93-6.43,1.28Z" style="fill:#263238"></path><path d="M192.63,401.52a.5.5,0,0,1-.15-1c24.34-7.91,30.56-25.28,30.62-25.45a.48.48,0,0,1,.63-.31.5.5,0,0,1,.31.63c-.06.18-6.44,18-31.25,26.08Z" style="fill:#263238"></path><path d="M96.71,487.5h42l-3.39-62.27s9.1-65.87,8.83-78.19-.8-43.11-11.24-54.89-19-9.1-19-9.1-10.18,4-13.93,20.08-6.42,111.12-6.42,111.12.26,7.5.53,17.41C94.35,440.48,96.29,479.16,96.71,487.5Z" style="fill:#fff"></path><path d="M138.74,488h-42a.5.5,0,0,1-.5-.47c-.39-7.76-2.36-46.9-2.6-55.86-.26-9.79-.53-17.33-.53-17.4,0-1,2.72-95.32,6.44-111.25,3.76-16.14,13.8-20.27,14.22-20.44s9-2.64,19.57,9.24,11.09,41.88,11.36,54.74V347c.27,12.22-8.75,77.61-8.84,78.27l3.4,62.17a.46.46,0,0,1-.14.37A.48.48,0,0,1,138.74,488Zm-41.55-1h41l-3.36-61.74c.09-.76,9.1-66.07,8.83-78.21v-.47c-.27-12.75-.92-42.6-11.11-54.1s-18.4-9-18.49-9-9.94,4.12-13.58,19.71c-3.7,15.84-6.39,110.08-6.41,111,0,0,.27,7.58.53,17.37C94.85,440.42,96.74,478.25,97.19,487Z" style="fill:#263238"></path><path d="M265.73,188.56s2.32,12.1,3.15,17.23-.66,6.63,8.78,15.08S323.88,265.6,336.31,284s19.38,28.33,17.39,34.63-14.24,12.25-21.53,13.58-31.81,3.15-52.69,2.15-32.3-2.65-32.3-2.65L214.54,262s26.51,14.91,46.06,19.88,31.81,7.78,31.81,7.78-13.26-28.82-26.18-42.57S246.35,226.83,242,220.7s-10.27-30.15-10.27-30.15Z" style="fill:#fff"></path><path d="M292.37,335.14c-4.32,0-8.68-.09-12.91-.29-20.66-1-32.24-2.64-32.35-2.65a.51.51,0,0,1-.38-.28l-32.64-69.75a.5.5,0,0,1,.11-.58.51.51,0,0,1,.59-.07c.26.15,26.67,14.94,45.93,19.83,16.19,4.12,27.49,6.78,30.8,7.55-2.4-5-14.24-29.36-25.65-41.51-4.05-4.3-7.47-7.85-10.48-11-6.49-6.73-10.78-11.18-13.76-15.42-4.31-6.13-10.1-29.33-10.34-30.32a.49.49,0,0,1,.08-.42.53.53,0,0,1,.37-.2l34-2a.49.49,0,0,1,.52.41c0,.12,2.33,12.16,3.15,17.24.14.84.21,1.6.28,2.26.35,3.47.56,5.56,8.34,12.53,9.44,8.44,46.19,44.64,58.73,63.21l1.35,2c11.67,17.26,18.1,26.77,16.11,33.07s-14.34,12.54-21.92,13.92C326.56,333.73,309.76,335.14,292.37,335.14Zm-44.85-3.89c1.83.25,13.1,1.71,32,2.6,21.21,1,45.49-.85,52.57-2.14s19.25-7.25,21.15-13.25c1.84-5.83-4.49-15.2-16-32.2l-1.34-2c-12.5-18.5-49.16-54.61-58.57-63-8.08-7.22-8.3-9.46-8.67-13.17-.07-.68-.14-1.39-.27-2.2-.73-4.52-2.64-14.58-3.07-16.78L232.4,191c.95,3.71,6.22,23.94,10,29.4,2.94,4.18,7.2,8.6,13.66,15.29,3,3.14,6.44,6.69,10.48,11,12.83,13.66,26.14,42.42,26.27,42.71a.51.51,0,0,1-.07.53.5.5,0,0,1-.5.17c-.12,0-12.48-2.87-31.82-7.79-16.88-4.29-39.17-16.1-44.83-19.19Z" style="fill:#263238"></path><path d="M267,335a.51.51,0,0,1-.47-.32c0-.09-3.52-9-18-27.51s-25.21-40.67-25.31-40.89a.49.49,0,0,1,.12-.59.48.48,0,0,1,.59-.05c.31.19,30.32,19.08,43.38,31.7,13.43,13,18.49,21.1,15.93,25.53-2.41,4.16-15.48,11.74-16,12.06A.45.45,0,0,1,267,335Zm-42-67.55c2.73,5.4,12.19,23.48,24.41,39.1,12.71,16.27,16.93,25,17.88,27.23,2.44-1.44,13.15-7.91,15.18-11.42,2.23-3.85-3.08-12-15.77-24.3C255.38,287.17,231.24,271.48,225,267.48Z" style="fill:#263238"></path><path d="M183.15,245.15s14.68,1.08,26.12,6.7,40.58,38.85,54.18,65S277,348.12,277,348.12s-5.61,3.45-17.91,7.77-15.54,5.39-17.27,3.67-13.38-30-25.69-56.34S183.58,265,183.58,265Z" style="fill:#fff"></path><path d="M244,360.85a3.24,3.24,0,0,1-2.51-.94c-1-1-4.16-8.14-10.19-21.83-4.44-10.07-10-22.6-15.6-34.65-12.09-25.88-32.19-37.87-32.39-38a.48.48,0,0,1-.25-.42l-.43-19.85a.52.52,0,0,1,.15-.38.48.48,0,0,1,.39-.13c.14,0,14.9,1.15,26.3,6.74,11.74,5.76,40.79,39,54.4,65.19,13.5,25.92,13.65,31.31,13.65,31.53a.5.5,0,0,1-.23.42c-.06,0-5.8,3.53-18,7.82C250.75,359.35,246.5,360.85,244,360.85Zm-60-96.12c2.34,1.45,21.05,13.65,32.56,38.28,5.63,12.06,11.16,24.6,15.6,34.67,4.89,11.08,9.11,20.65,10,21.52,1.49,1.49,4.7.44,16.75-3.78a110.21,110.21,0,0,0,17.56-7.57c-.19-1.35-1.7-8.1-13.52-30.8-13.28-25.51-42.58-59.18-53.95-64.76-10-4.89-22.63-6.33-25.39-6.59Zm93,83.39h0Z" style="fill:#263238"></path><path d="M212.27,279.38a.5.5,0,0,1-.42-.22,60.29,60.29,0,0,0-4.57-6,.49.49,0,0,1,0-.7.5.5,0,0,1,.71,0,60.81,60.81,0,0,1,4.65,6.05.5.5,0,0,1-.13.7A.48.48,0,0,1,212.27,279.38Z" style="fill:#263238"></path><path d="M205.12,270.69a.47.47,0,0,1-.35-.15c-9.73-9.63-19-10.89-19-10.91a.5.5,0,0,1,.12-1c.39.05,9.64,1.31,19.62,11.19a.5.5,0,0,1,0,.71A.47.47,0,0,1,205.12,270.69Z" style="fill:#263238"></path><path d="M135.91,136.15s11.16,0,19.6,5.71,12.91,15.14,16.38,16.38,16.88-.5,19.11,2.73,0,8.19-1.24,9.68,5.71,4,6.45,4.71,1.49,3.23.75,4.22,1.49-.5,3.22.74,1,5.22,1,5.22,7.44,6.94,6.7,11.66-6,10.67-13.4,13.9S182.81,222,183.31,236.16,185.54,265,185.54,265s24.32,25.56,26.06,42.94S192,339.4,176.36,326s-33.51-50.87-38.72-58.07-.49-29.53-14.14-42.44S94,192.24,95,177.35,107.37,138.38,135.91,136.15Z" style="fill:#fff"></path><path d="M190.1,331.82A21.53,21.53,0,0,1,176,326.38c-11.38-9.76-23.74-31.84-31.92-46.46-3.05-5.44-5.45-9.73-6.87-11.7-2-2.8-2.6-7.72-3.26-13.42-1.08-9.36-2.43-21-10.83-28.94-13.85-13.11-29.68-33.68-28.69-48.55,1-15.52,12.92-39.43,41.41-41.66h0c.46,0,11.41.07,19.88,5.79,4.75,3.21,8.22,7.54,11,11,2.16,2.68,3.86,4.8,5.27,5.31,1.24.44,4,.48,6.91.53,5.36.08,10.91.17,12.44,2.38,2.5,3.61-.09,8.88-1.27,10.29.14.84,3,2.22,4.34,2.88a9.46,9.46,0,0,1,2.09,1.16,5.23,5.23,0,0,1,1.06,4.35,3.84,3.84,0,0,1,2.84.56c1.71,1.22,1.38,4.46,1.24,5.44,1.21,1.17,7.38,7.38,6.66,11.92-.82,5.19-6.58,11.19-13.7,14.28-7.77,3.37-11.33,11.41-10.86,24.59s2,26.93,2.21,28.58c2,2.16,24.39,26.19,26.08,43.11.86,8.62-4,17.26-12.11,21.49A21.3,21.3,0,0,1,190.1,331.82ZM135.92,136.65c-27.84,2.19-39.45,25.56-40.46,40.73-1,14.52,14.68,34.8,28.38,47.75,8.66,8.19,10,20,11.13,29.55.65,5.56,1.2,10.36,3.08,13,1.45,2,3.87,6.32,6.93,11.79,8.14,14.56,20.45,36.55,31.7,46.19,6.7,5.74,15.24,6.79,22.85,2.82s12.39-12.28,11.57-20.5c-1.7-17-25.68-42.39-25.92-42.64A.53.53,0,0,1,185,265c0-.15-1.74-14.82-2.23-28.83-.48-13.63,3.27-22,11.47-25.54,7.73-3.35,12.44-9.34,13.1-13.52.7-4.4-6.47-11.15-6.55-11.22a.51.51,0,0,1-.15-.46c.19-1,.42-3.85-.79-4.71a3.2,3.2,0,0,0-2.43-.34c-.44.07-.85.13-1.07-.24a.76.76,0,0,1,.17-.87c.55-.74-.06-2.93-.7-3.57a14.35,14.35,0,0,0-1.82-1c-2.63-1.28-4.66-2.35-4.9-3.49a1,1,0,0,1,.24-.93c1.2-1.45,3.26-6.12,1.21-9.08-1.24-1.79-7-1.88-11.63-1.95-3.14-.05-5.84-.09-7.24-.59-1.68-.6-3.45-2.82-5.71-5.63-2.74-3.42-6.16-7.68-10.78-10.81C147.18,136.83,136.44,136.65,135.92,136.65Z" style="fill:#263238"></path><path d="M162.46,168.42a1,1,0,0,1-.16-2c3.65-.58,5.12-1.73,5.7-2.59a2.12,2.12,0,0,0,.41-1.58,1,1,0,0,1,.74-1.2,1,1,0,0,1,1.2.7,4,4,0,0,1-.64,3.12c-1.15,1.78-3.54,3-7.09,3.53Z" style="fill:#263238"></path><path d="M154,159.49a1,1,0,0,1-.4-.09,1,1,0,0,1-.51-1.32c4.54-10.25,12.06-7.09,12.13-7.06a1,1,0,1,1-.8,1.83c-.24-.1-5.8-2.33-9.5,6A1,1,0,0,1,154,159.49Z" style="fill:#263238"></path><path d="M165.91,219.93c-4.83,0-6.29-2.25-6.36-2.37a.49.49,0,0,1,.17-.68.48.48,0,0,1,.68.16s2,2.9,9.16,1.51a75.44,75.44,0,0,0,14.29-4.43.5.5,0,1,1,.4.91,76,76,0,0,1-14.5,4.5A19.79,19.79,0,0,1,165.91,219.93Z" style="fill:#263238"></path><path d="M68.9,202.66S51.38,206.14,39.52,215,20.23,248,23.5,264.88s10.68,29.67,6.23,34.71S17,311.75,18.16,325.4,36.85,349.13,31.21,356s-12.76,17.21-4.75,28.78S46,395.7,46,399s-8.3,2.67-6.23,5.34,12.16-.89,17.21-3S75.71,393,79.27,377s-2.38-21.36,0-26.1,16-10.38,15.42-33.23-4.74-51-16.31-67.63S65.92,213,73.93,207.33C73.93,207.33,73.36,199.77,68.9,202.66Z" style="fill:#263238"></path><path d="M42.77,405.74c-1.52,0-2.72-.32-3.35-1.13a1.55,1.55,0,0,1-.39-1.44c.28-.91,1.54-1.32,3-1.8,1.64-.54,3.51-1.15,3.51-2.41,0-.91-1.66-1.58-3.95-2.5-4.19-1.67-10.52-4.21-15.54-11.45-7.88-11.38-1.59-21.68,4.77-29.38,2.69-3.25-.47-7.44-4.47-12.75-3.8-5-8.11-10.76-8.69-17.44C16.58,313.09,23,306.11,27.76,301c.56-.62,1.1-1.2,1.59-1.75,2.64-3,.75-9.1-1.88-17.55A153.37,153.37,0,0,1,23,265c-3.37-17.46,4.35-41.45,16.21-50.34,11.37-8.53,28.08-12.16,29.49-12.45a3.13,3.13,0,0,1,3.16-.43c2.2,1.09,2.54,5.35,2.55,5.53a.47.47,0,0,1-.21.45c-7.5,5.28-7.14,25.2,4.58,42,13.72,19.71,16,54.06,16.4,67.91.46,17.48-7.46,25.14-12.19,29.72a17,17,0,0,0-3.29,3.74c-.89,1.8-.48,3.78.09,6.53a41.08,41.08,0,0,1,0,19.46c-1.71,7.73-7,18.29-22.54,24.68C53.85,403.18,47.06,405.74,42.77,405.74Zm28-203.24a3.08,3.08,0,0,0-1.59.58.51.51,0,0,1-.17.07c-.18,0-17.55,3.57-29.19,12.29S20.68,247.65,24,264.79a150.25,150.25,0,0,0,4.44,16.62c2.72,8.76,4.68,15.09,1.67,18.51-.49.56-1,1.15-1.61,1.77-4.59,5-10.87,11.75-9.84,23.66.56,6.39,4.78,12,8.5,16.93,4.1,5.44,7.63,10.13,4.44,14-6.13,7.43-12.21,17.34-4.72,28.17,4.85,7,11,9.46,15.09,11.1,2.76,1.1,4.58,1.83,4.58,3.42,0,2-2.33,2.75-4.2,3.36-1,.32-2.22.73-2.35,1.14-.05.16.11.41.22.54,1.33,1.71,7.85.48,16.62-3.12,15.12-6.23,20.28-16.48,22-24a40.19,40.19,0,0,0,0-19c-.61-2.95-1-5.08,0-7.19a17.38,17.38,0,0,1,3.49-4c4.9-4.75,12.32-11.93,11.88-29-.36-13.77-2.65-47.88-16.22-67.37-11.91-17.09-12.2-37.45-4.57-43.23-.14-1.24-.68-3.8-2-4.45A1.45,1.45,0,0,0,70.76,202.5Zm-1.86.16h0Z" style="fill:#263238"></path><path d="M115.8,131.93s18.87-7.69,22.09-4.47,8.44,18.37,7.45,30.28-4.47,15.39-1,19.36,7.45,10.67,5,14.39-17.13,1.24-18.62,5.21-.49,19.11,3,23.58,10.67,16.13,3.73,23.83-18.62,10.91-32.27,5.95S81.8,230,83.29,220s-12.9-7.69-14.39-17.37-2-17.87,2.48-31.77S80.17,143.32,115.8,131.93Z" style="fill:#263238"></path><path d="M117.81,252.92A37.8,37.8,0,0,1,105,250.53C90.68,245.34,81.32,229.83,82.8,220c.72-4.84-2.54-6.55-6.32-8.53-3.43-1.79-7.33-3.83-8.07-8.69-1.43-9.28-2.16-17.53,2.49-32l0-.1c4.38-13.64,8.92-27.74,44.69-39.18,2.05-.83,19.26-7.71,22.62-4.35,3.2,3.21,8.61,18.36,7.58,30.67a72.24,72.24,0,0,1-1.7,10.53c-.93,4.13-1.39,6.2.59,8.46,3.16,3.61,7.78,10.84,5,15-1.34,2-5.44,2.36-9.77,2.71-3.82.31-8.14.67-8.79,2.4-1.49,4-.36,18.89,2.91,23.09,2,2.57,11.54,15.79,3.7,24.47A26.28,26.28,0,0,1,117.81,252.92ZM135,127.16c-4.46,0-13.12,2.83-19,5.23l0,0c-35.31,11.28-39.56,24.52-44.07,38.53l0,.11c-4.59,14.26-3.87,22.39-2.47,31.53.68,4.37,4.17,6.2,7.55,8,3.78,2,7.68,4,6.85,9.56-1.43,9.49,7.66,24.44,21.51,29.48,12.48,4.54,24.34,2.36,31.72-5.82s-1.83-20.73-3.74-23.18c-3.5-4.5-4.65-19.8-3.05-24.06.87-2.33,5.13-2.68,9.64-3.05,3.9-.32,7.94-.65,9-2.27,2.12-3.18-1.06-9.37-4.92-13.78-2.32-2.65-1.75-5.17-.82-9.34a72.34,72.34,0,0,0,1.69-10.39c1-11.83-4.29-26.87-7.3-29.88A3.66,3.66,0,0,0,135,127.16Zm-19.21,4.77h0Z" style="fill:#263238"></path><path d="M54.63,350.7c-5.58,0-11.3-2.78-13.8-7a7.49,7.49,0,0,1,.56-8.92c3.16-4.06,6.42-6.08,9.73-6,4.48.12,7.29,4.07,7.4,4.24a.5.5,0,0,1-.82.57s-2.64-3.71-6.61-3.81c-3-.11-6,1.8-8.91,5.6a6.53,6.53,0,0,0-.49,7.78c2.37,4,8.8,7.4,15.45,6.27,6.45-1.1,10.93-6.23,12.61-14.44a40.35,40.35,0,0,0-.85-18.66.5.5,0,0,1,.36-.61.49.49,0,0,1,.61.35,41.23,41.23,0,0,1,.86,19.12c-2.39,11.67-9.44,14.55-13.42,15.22A16,16,0,0,1,54.63,350.7Z" style="fill:#828282"></path><path d="M68,312.25a.52.52,0,0,1-.48-.34c-2.24-6.57-5.46-13-8.86-19.87-5.92-11.88-12-24.17-13.42-38a57.87,57.87,0,0,1,.24-14.09.5.5,0,0,1,1,.14,56.43,56.43,0,0,0-.23,13.85c1.36,13.69,7.44,25.9,13.32,37.7,3.42,6.87,6.65,13.36,8.91,20a.51.51,0,0,1-.31.64Z" style="fill:#828282"></path><path d="M48,232a.45.45,0,0,1-.16,0,.5.5,0,0,1-.31-.63c5-14.58,15.47-21,15.58-21a.51.51,0,0,1,.69.17.51.51,0,0,1-.18.69c-.1.06-10.29,6.28-15.15,20.49A.49.49,0,0,1,48,232Z" style="fill:#828282"></path><path d="M87.23,323.72l-.15,0a.49.49,0,0,1-.32-.63,27.39,27.39,0,0,0,.79-13.42.5.5,0,0,1,.41-.58.51.51,0,0,1,.58.4,28.4,28.4,0,0,1-.83,13.91A.51.51,0,0,1,87.23,323.72Z" style="fill:#828282"></path><path d="M85.79,302.14a.5.5,0,0,1-.47-.32c-2.82-7.4-7.54-15.21-13-24.26-2.45-4.06-5-8.26-7.57-12.78-14.1-24.67-.14-48.36,0-48.59a.5.5,0,0,1,.86.51c-.14.23-13.8,23.43,0,47.59,2.58,4.51,5.12,8.7,7.57,12.76,5.49,9.08,10.23,16.93,13.08,24.42a.5.5,0,0,1-.29.64A.47.47,0,0,1,85.79,302.14Z" style="fill:#828282"></path><path d="M77.85,203.82a2.13,2.13,0,0,1-1-.18.5.5,0,1,1,.51-.86c1.86,1.12,24.26-6.26,36.9-18.46,4.68-4.52,8.17-12.19,10.37-22.79a.49.49,0,0,1,.59-.39.5.5,0,0,1,.39.59c-2.24,10.8-5.83,18.65-10.66,23.31C103,196.56,83,203.82,77.85,203.82Z" style="fill:#828282"></path><path d="M126.34,154.77h-.06a.5.5,0,0,1-.43-.56,115.46,115.46,0,0,0,1-13.65.5.5,0,0,1,.5-.5h0a.5.5,0,0,1,.5.5,116.36,116.36,0,0,1-1,13.78A.51.51,0,0,1,126.34,154.77Z" style="fill:#828282"></path><path d="M115.39,214.88a.49.49,0,0,1-.48-.37.5.5,0,0,1,.35-.61,31.84,31.84,0,0,0,7-2.75.5.5,0,0,1,.48.88,32.85,32.85,0,0,1-7.25,2.84Z" style="fill:#828282"></path><path d="M104.15,216.25A67.11,67.11,0,0,1,84,212.94a.5.5,0,0,1,.34-.94,64.86,64.86,0,0,0,23.19,3.14.52.52,0,0,1,.53.47.5.5,0,0,1-.46.53C106.42,216.22,105.27,216.25,104.15,216.25Z" style="fill:#828282"></path><path d="M133.26,247.08s-4.16,0-5.64,3.56-2.37,5.64-2.37,5.64-9.2-.89-10.68,3.85-1.19,6.53-1.19,6.53-5.34,3-5.34,8.31,2.37,8,6.53,10.38,17.2,11.86,21.06,21.36-1.48,50.43,5.93,54.88,22.84,4.74,22.84,4.74S165,377,170,379.09s19.87,1.48,33.52-8.6,19.28-19.88,17.21-24.33-15.43-12.46-24-32.63S165,264,153.13,255.68,133.26,247.08,133.26,247.08Z" style="fill:#fff"></path><path d="M176.44,380.53a18.19,18.19,0,0,1-6.59-1c-4.72-1.94-5.73-10.6-5.91-12.73-2.67-.09-15.82-.72-22.64-4.8-4.55-2.74-4.55-17.52-4.55-31.82,0-10,0-19.42-1.58-23.3-4-9.86-17.68-19.31-20.85-21.12-4.07-2.32-6.78-5-6.78-10.81,0-4.92,4.18-7.87,5.32-8.58a20.72,20.72,0,0,1,1.23-6.41c1.43-4.56,9-4.34,10.84-4.23.3-.71,1.09-2.57,2.23-5.3,1.59-3.82,5.91-3.87,6.1-3.87h0c.34,0,8.3.4,20.15,8.7s35.19,37.93,43.78,58c5.88,13.8,13.88,21.75,19.17,27,2.42,2.4,4.16,4.13,4.85,5.6,2.47,5.3-4.67,15.55-17.36,24.94C194,378.2,183.48,380.53,176.44,380.53ZM123.55,256.71c-2.62,0-7.53.43-8.51,3.57-1.41,4.52-1.17,6.29-1.17,6.3a.51.51,0,0,1-.25.52c-.05,0-5.08,2.89-5.08,7.87,0,5.3,2.4,7.73,6.27,9.94,3.23,1.85,17.17,11.5,21.28,21.61,1.65,4.07,1.66,13.59,1.66,23.68,0,13.37,0,28.52,4.07,31,7.22,4.33,22.44,4.67,22.59,4.67a.5.5,0,0,1,.49.47c0,.11.64,10.39,5.33,12.33s19.44,1.5,33-8.55,19-19.6,17.05-23.71c-.61-1.3-2.39-3.07-4.64-5.31-5.35-5.32-13.43-13.36-19.39-27.33-8.53-20-31.7-49.42-43.44-57.64-11.43-8-19.28-8.49-19.59-8.51s-3.86.11-5.17,3.25c-1.48,3.57-2.37,5.64-2.37,5.64a.53.53,0,0,1-.51.31A14.94,14.94,0,0,0,123.55,256.71Z" style="fill:#263238"></path><line x1="164.4" y1="366.33" x2="163.38" y2="357.94" style="fill:#fff"></line><path d="M164.4,366.83a.49.49,0,0,1-.49-.44l-1-8.39a.51.51,0,0,1,.44-.56.5.5,0,0,1,.55.44l1,8.39a.5.5,0,0,1-.44.56Z" style="fill:#263238"></path><path d="M162,286.44a.5.5,0,0,1-.43-.24c-11.64-18.91-32.78-28.19-33-28.28A.5.5,0,0,1,129,257c.22.1,21.64,9.49,33.46,28.68a.5.5,0,0,1-.17.69A.48.48,0,0,1,162,286.44Z" style="fill:#263238"></path><path d="M143.05,291.49a.52.52,0,0,1-.46-.29,54.32,54.32,0,0,0-4-7.09.49.49,0,0,1,.13-.69.5.5,0,0,1,.7.13,56.35,56.35,0,0,1,4.08,7.22.51.51,0,0,1-.24.67A.54.54,0,0,1,143.05,291.49Z" style="fill:#263238"></path><path d="M137.57,282.32a.51.51,0,0,1-.4-.2c-9.43-12.58-20.78-14.35-20.89-14.37a.5.5,0,0,1-.43-.57.51.51,0,0,1,.57-.42c.48.07,11.86,1.82,21.55,14.76a.5.5,0,0,1-.1.7A.47.47,0,0,1,137.57,282.32Z" style="fill:#263238"></path><path d="M141.56,361.59s-3.26-5.94,7.12-6.53,15.43,3.56,20.17,5,23.44,3,34.71-7.41A115.23,115.23,0,0,1,192,326c-4.75-16-7.12-32.33-16.31-45.09" style="fill:#fff"></path><path d="M141.56,362.09a.51.51,0,0,1-.44-.26,4.63,4.63,0,0,1-.07-4.14c1-1.85,3.58-2.9,7.6-3.13,7.79-.45,12.64,1.75,16.53,3.51a36.71,36.71,0,0,0,3.82,1.56c5,1.55,22.89,2.8,33.92-7a118.91,118.91,0,0,1-11.41-26.47c-1.14-3.86-2.16-7.77-3.14-11.56-3.17-12.22-6.17-23.76-13.1-33.38a.51.51,0,0,1,.11-.7.5.5,0,0,1,.7.12c7,9.76,10.06,21.4,13.26,33.71,1,3.78,2,7.69,3.13,11.53A115.71,115.71,0,0,0,204,352.42a.5.5,0,0,1-.08.64c-11.32,10.42-30,9.14-35.2,7.52a36.14,36.14,0,0,1-3.93-1.6c-3.79-1.72-8.51-3.85-16.06-3.42-3.6.21-5.94,1.11-6.78,2.61a3.63,3.63,0,0,0,.07,3.18.51.51,0,0,1-.2.68A.53.53,0,0,1,141.56,362.09Z" style="fill:#263238"></path><path d="M168,305.13a.5.5,0,0,1-.49-.4c-.29-1.46-.67-3-1.14-4.69a.5.5,0,0,1,1-.27c.47,1.68.86,3.28,1.15,4.76a.49.49,0,0,1-.39.59Z" style="fill:#263238"></path><path d="M165.68,296.68a.5.5,0,0,1-.48-.34c-1.25-3.8-2.43-6.62-2.44-6.64a.5.5,0,1,1,.92-.39s1.21,2.88,2.47,6.71a.5.5,0,0,1-.32.64Z" style="fill:#263238"></path><path d="M216.23,160.59s0-3.5-1.52-4.17a3.94,3.94,0,0,0-5,3,18.41,18.41,0,0,0,.23,6.06S213.91,161.74,216.23,160.59Z" style="fill:#fff"></path><path d="M210,166a.4.4,0,0,1-.15,0,.49.49,0,0,1-.34-.37,18.83,18.83,0,0,1-.23-6.26,4.29,4.29,0,0,1,2.29-3,4.07,4.07,0,0,1,3.37-.3c1.74.77,1.81,4.22,1.82,4.61a.5.5,0,0,1-.28.45c-2.23,1.12-6.1,4.76-6.14,4.8A.49.49,0,0,1,210,166Zm3.7-9.25a3.74,3.74,0,0,0-1.67.43,3.34,3.34,0,0,0-1.77,2.35,16.27,16.27,0,0,0,.07,5,35.71,35.71,0,0,1,5.42-4.19c-.06-1.25-.41-3-1.22-3.41A2,2,0,0,0,213.67,156.72Z" style="fill:#263238"></path><path d="M240.43,155.45a3.79,3.79,0,0,0-2.74-2.6,4.32,4.32,0,0,0-4.92,2.53c-.42,1.48.28,2.6,2.67,3.17s4.57.07,5.06-.85A3.09,3.09,0,0,0,240.43,155.45Z" style="fill:#fff"></path><path d="M237.44,159.28a9.41,9.41,0,0,1-2.12-.25,4.18,4.18,0,0,1-2.85-1.69,2.59,2.59,0,0,1-.18-2.1,4.82,4.82,0,0,1,5.52-2.88,4.28,4.28,0,0,1,3.1,2.93,3.48,3.48,0,0,1,0,2.65C240.48,158.79,239.1,159.28,237.44,159.28Zm-.7-6.05a3.8,3.8,0,0,0-3.49,2.29,1.64,1.64,0,0,0,.08,1.32,3.38,3.38,0,0,0,2.22,1.22c2.31.54,4.18,0,4.51-.6a2.51,2.51,0,0,0-.09-1.82.14.14,0,0,1,0-.07,3.3,3.3,0,0,0-2.38-2.24A4,4,0,0,0,236.74,153.23Z" style="fill:#263238"></path><path d="M249.57,155.87a3.79,3.79,0,0,0-2.74-2.6,4.33,4.33,0,0,0-4.92,2.53c-.42,1.48.28,2.6,2.67,3.17s4.57.07,5.06-.85A3.09,3.09,0,0,0,249.57,155.87Z" style="fill:#fff"></path><path d="M246.58,159.7a9.26,9.26,0,0,1-2.11-.25,4.21,4.21,0,0,1-2.86-1.68,2.6,2.6,0,0,1-.18-2.1,4.81,4.81,0,0,1,5.52-2.88,4.29,4.29,0,0,1,3.1,2.92,3.43,3.43,0,0,1,0,2.65C249.62,159.21,248.24,159.7,246.58,159.7Zm-.7-6a3.79,3.79,0,0,0-3.49,2.28,1.64,1.64,0,0,0,.08,1.32,3.38,3.38,0,0,0,2.22,1.22c2.31.54,4.18,0,4.51-.59a2.55,2.55,0,0,0-.09-1.82.24.24,0,0,1,0-.08,3.28,3.28,0,0,0-2.38-2.23A3.37,3.37,0,0,0,245.88,153.66Z" style="fill:#263238"></path><path d="M264.37,154.94a2.64,2.64,0,0,0-2.13-1.6c-1.75-.34-3.48.69-3.8,1.61s.23,1.63,2.08,2,3.54,0,3.92-.56A1.57,1.57,0,0,0,264.37,154.94Z" style="fill:#fff"></path><path d="M262,157.54a9,9,0,0,1-1.57-.14,3.23,3.23,0,0,1-2.38-1.22,1.59,1.59,0,0,1-.1-1.39c.42-1.21,2.41-2.32,4.37-1.94a3.18,3.18,0,0,1,2.5,1.89,2,2,0,0,1,0,1.88C264.44,157.27,263.26,157.54,262,157.54Zm-.48-3.77a3,3,0,0,0-2.62,1.35.6.6,0,0,0,0,.55c.11.19.47.53,1.69.75,1.85.33,3.22,0,3.41-.35s0-.78-.09-.89l0-.08a2.2,2.2,0,0,0-1.76-1.27A3.23,3.23,0,0,0,261.53,153.77Z" style="fill:#263238"></path><path d="M322.36,173.94l-.54-6s1.45-4.8.09-9-4.84-4.13-6.83-4.42-30.33-.52-33.13.74-3.64,1.11-3.64,1.11l-35.61,1.38-3.14,0s-13.26-.66-20.37,1.56-11.68,9.22-11.68,9.22l-3.48,0,.05,6.34,0,6.34,3.48,0s4.7,6.91,11.84,9,20.39,1.22,20.39,1.22l3.15,0,35.62.78s.83-.16,3.66,1.05,31.15.51,33.13.19,5.47-.36,6.76-4.54-.24-9-.24-9Z" style="fill:#fff"></path><path d="M296.18,194.48c-6.68,0-12.82-.18-14.11-.74-2.54-1.09-3.37-1-3.38-1L243,192l-3.14,0c-.51,0-13.39.87-20.53-1.24-6.59-1.94-11.07-7.76-12-9l-3.21,0a.48.48,0,0,1-.36-.15.51.51,0,0,1-.15-.35l-.1-12.67a.54.54,0,0,1,.14-.36.56.56,0,0,1,.35-.15l3.22,0c.87-1.25,5.24-7.15,11.8-9.2,7.11-2.22,20-1.61,20.54-1.58l3.12,0,35.59-1.38h.12a9.47,9.47,0,0,0,3.33-1.08c3.14-1.41,31.92-1,33.41-.78l.64.08c2.1.26,5.27.64,6.59,4.69a17.19,17.19,0,0,1-.06,9.16l.54,5.93s0,.06,0,.08l-.44,5.94a17.38,17.38,0,0,1,.22,9.17c-1.26,4.06-4.42,4.5-6.52,4.79l-.63.09C314.16,194.18,304.72,194.48,296.18,194.48Zm-17.45-2.76a10.53,10.53,0,0,1,3.73,1.1c2.54,1.09,30.4.56,32.86.15l.66-.09c2-.27,4.64-.64,5.7-4.1,1.23-4-.22-8.61-.24-8.66a.62.62,0,0,1,0-.19l.44-6-.54-6a.41.41,0,0,1,0-.19c0-.05,1.39-4.71.09-8.66-1.12-3.44-3.81-3.77-5.76-4L315,155c-2.47-.36-30.34-.42-32.85.7s-3.56,1.18-3.85,1.16l-35.58,1.38-3.16,0c-.16,0-13.28-.63-20.22,1.54s-11.37,8.94-11.42,9a.51.51,0,0,1-.41.23l-3,0,.1,11.67,3,0a.67.67,0,0,1,.42.22c0,.06,4.68,6.79,11.56,8.82s20.08,1.2,20.22,1.2l3.17,0,35.61.78Z" style="fill:#263238"></path><path d="M322.36,173.94l-.54-6s1.45-4.8.09-9-4.84-4.13-6.83-4.42c-.17,0-.54-.05-1-.07L205.48,176.22l-1.38.81,0,4.24,3.48,0s4.7,6.91,11.84,9,20.39,1.22,20.39,1.22l3.15,0,35.62.78s.83-.16,3.66,1.05,31.15.51,33.13.19,5.47-.36,6.76-4.54-.24-9-.24-9Z" style="fill:#00FF88"></path><path d="M295.21,194.48c-6.25,0-11.84-.18-13.14-.74-2.54-1.09-3.37-1-3.38-1L243,192l-3.14,0c-.51,0-13.39.87-20.53-1.24-6.59-1.94-11.07-7.76-12-9l-3.21,0a.56.56,0,0,1-.36-.15.51.51,0,0,1-.15-.35l0-4.24a.48.48,0,0,1,.25-.43l1.38-.81.15-.06L313.94,154a.25.25,0,0,1,.12,0c.53,0,.91,0,1.09.07l.64.08c2.1.26,5.27.64,6.59,4.69a17.19,17.19,0,0,1-.06,9.16l.54,5.93s0,.06,0,.08l-.44,5.94a17.38,17.38,0,0,1,.22,9.17c-1.26,4.06-4.42,4.5-6.52,4.79l-.63.09C314.61,194.1,304.22,194.48,295.21,194.48Zm-16.48-2.76a10.53,10.53,0,0,1,3.73,1.1c2.54,1.09,30.4.56,32.86.15l.66-.09c2-.27,4.64-.64,5.7-4.1,1.23-4-.22-8.61-.24-8.66a.62.62,0,0,1,0-.19l.44-6-.54-6a.41.41,0,0,1,0-.19c0-.05,1.39-4.71.09-8.66-1.12-3.44-3.81-3.77-5.76-4L315,155c-.15,0-.47,0-.92-.06L205.66,176.69l-1.06.62,0,3.45,3,0a.67.67,0,0,1,.42.22c0,.06,4.68,6.79,11.56,8.82s20.08,1.2,20.22,1.2l3.17,0,35.61.78Z" style="fill:#263238"></path><rect x="201.76" y="167.92" width="2.65" height="13.92" transform="translate(-1.46 1.71) rotate(-0.48)" style="fill:#00FF88"></rect><path d="M201.82,182.35a.5.5,0,0,1-.5-.5l-.12-13.92a.5.5,0,0,1,.14-.35.49.49,0,0,1,.36-.15l2.65,0a.55.55,0,0,1,.5.49l.12,13.92a.5.5,0,0,1-.14.35.49.49,0,0,1-.36.15l-2.65,0Zm.39-13.92.1,12.91H204l-.1-12.92Z" style="fill:#263238"></path><rect x="197.62" y="168.78" width="3.98" height="12.59" transform="translate(-1.46 1.68) rotate(-0.48)" style="fill:#fff"></rect><path d="M197.67,181.88a.52.52,0,0,1-.35-.14.51.51,0,0,1-.15-.35l-.1-12.59a.52.52,0,0,1,.14-.36.51.51,0,0,1,.35-.15l4,0a.49.49,0,0,1,.5.5l.11,12.59a.5.5,0,0,1-.5.5l-4,0Zm.4-12.59.1,11.59,3,0-.09-11.59Z" style="fill:#263238"></path><path d="M248.17,228.16c-4.14-1.33-11.43-10.6-14.91-15.57s-4.14-13.59-4.14-17.73,5.3-10.27,5.3-10.27,1.66-6,5.14-3.81,2.81,10.1,2,12.75-1.5,3-1,3.81,4.64,1.33,11.1,5.64,5.47,12.09,5.47,12.09" style="fill:#fff"></path><path d="M248.17,228.66a.4.4,0,0,1-.15,0c-5.18-1.65-14.16-14.32-15.17-15.76-4-5.75-4.23-16-4.23-18,0-4.06,4.69-9.73,5.35-10.52.19-.62,1.18-3.58,3.15-4.35a3,3,0,0,1,2.7.36c3.75,2.32,3.09,10.48,2.2,13.33a19.81,19.81,0,0,1-.83,2.22c-.36.82-.37.91-.21,1.19a7.1,7.1,0,0,0,1.74.78,43.36,43.36,0,0,1,9.21,4.69c6.64,4.43,5.69,12.49,5.68,12.57a.5.5,0,0,1-.55.44.51.51,0,0,1-.44-.56c0-.08.87-7.54-5.25-11.62a41.82,41.82,0,0,0-9-4.58c-1.31-.5-2-.75-2.24-1.21-.44-.73-.22-1.25.15-2.1a20.07,20.07,0,0,0,.8-2.12c.87-2.77,1.31-10.27-1.78-12.18a2,2,0,0,0-1.81-.28c-1.4.55-2.33,2.93-2.58,3.8a.44.44,0,0,1-.1.19c-.05.06-5.18,6-5.18,10,0,1.94.2,11.93,4,17.44,3.58,5.12,10.7,14.12,14.65,15.38a.51.51,0,0,1,.33.63A.51.51,0,0,1,248.17,228.66Z" style="fill:#263238"></path><path d="M228.6,177.64c-2.5,0-5.17-3-8.15-6.65a13.92,13.92,0,0,1-3.1-8.11.51.51,0,0,1,.5-.5h0a.5.5,0,0,1,.5.5,13.16,13.16,0,0,0,2.87,7.47c2.78,3.4,5.45,6.42,7.53,6.28a.5.5,0,1,1,.07,1Z" style="fill:#263238"></path><path d="M233.43,173.49a.45.45,0,0,1-.25-.07.5.5,0,0,1-.19-.68c1.86-3.25-.68-12.28-.71-12.37a.5.5,0,0,1,1-.27c.11.38,2.68,9.52.61,13.14A.5.5,0,0,1,233.43,173.49Z" style="fill:#263238"></path><path d="M243.31,174.49a.81.81,0,0,1-.51-.18c-1.34-1.06-1.55-9.26-1.59-11.75a.51.51,0,0,1,.49-.51h0a.5.5,0,0,1,.5.5c.07,4.61.51,9.89,1.12,10.86.4-.73.23-4.62-.46-8.79a.5.5,0,0,1,.42-.57.49.49,0,0,1,.57.41c.72,4.37,1.23,9.65-.38,10Z" style="fill:#263238"></path><path d="M254.63,175.48c-2.48,0-2.48-2.93-2.48-6.63,0-4-2.27-9.7-2.29-9.76a.5.5,0,0,1,.93-.37c.1.24,2.36,5.94,2.36,10.13s.21,5.63,1.48,5.63a.5.5,0,0,1,.5.5A.5.5,0,0,1,254.63,175.48Z" style="fill:#263238"></path><path d="M258.28,171.5a.64.64,0,0,1-.23-.05.5.5,0,0,1-.22-.67c.67-1.34,2.29-5.18,1.79-6.93a16.73,16.73,0,0,1-.52-5,.52.52,0,0,1,.54-.47.5.5,0,0,1,.46.53,15.8,15.8,0,0,0,.48,4.64c.71,2.47-1.75,7.44-1.85,7.65A.51.51,0,0,1,258.28,171.5Z" style="fill:#263238"></path><path d="M265.4,186.41a.49.49,0,0,1-.49-.43c0-.27-.83-6.63.68-11.64,1.44-4.82.16-16.09.14-16.2a.5.5,0,1,1,1-.12c0,.47,1.32,11.59-.19,16.6-1.44,4.81-.65,11.17-.64,11.23a.51.51,0,0,1-.43.56Z" style="fill:#263238"></path><path d="M222.16,190.22a.5.5,0,0,1-.37-.16,38.71,38.71,0,0,1-5.55-7.91c-1.81-3.79-5.12-12.71-5.15-12.8A.5.5,0,1,1,212,169c0,.09,3.32,9,5.12,12.71a37.52,37.52,0,0,0,5.38,7.66.5.5,0,0,1-.37.84Z" style="fill:#263238"></path><path d="M325.36,311.69a33.64,33.64,0,0,1-8-.94.49.49,0,0,1-.37-.6.5.5,0,0,1,.6-.37,32.74,32.74,0,0,0,7.75.91.51.51,0,0,1,.5.5A.5.5,0,0,1,325.36,311.69Z" style="fill:#263238"></path><path d="M311.52,308.7a.54.54,0,0,1-.21-.05C298.34,302.72,292,290,292,289.84a.5.5,0,0,1,.23-.67.51.51,0,0,1,.67.23c.06.13,6.23,12.56,18.87,18.34a.5.5,0,0,1-.21,1Z" style="fill:#263238"></path><path d="M141.12,195.21s-9.68-5.21-15.64,0,5,15.89,13.9,18.62,12.16-1,12.41-4.47" style="fill:#fff"></path><path d="M144.89,215.27a19.61,19.61,0,0,1-5.66-1c-6.45-2-14.58-8.41-15.79-14.07a5.32,5.32,0,0,1,1.71-5.4c6.15-5.38,15.8-.28,16.2-.07a.5.5,0,0,1-.47.89c-.09-.06-9.44-5-15.07-.07a4.35,4.35,0,0,0-1.4,4.45c1,4.87,8.25,11.21,15.12,13.31,5.34,1.63,8.18.79,9.63-.2a5,5,0,0,0,2.13-3.82.5.5,0,0,1,.53-.47.5.5,0,0,1,.47.54,5.93,5.93,0,0,1-2.57,4.57A8.27,8.27,0,0,1,144.89,215.27Z" style="fill:#263238"></path></g><g id="freepik--Sun--inject-217"><circle cx="93.47" cy="60.01" r="29.97" transform="translate(13.35 136.94) rotate(-76.54)" style="fill:#00FF88"></circle><rect x="92.17" y="96.16" width="1" height="10.37" style="fill:#00FF88"></rect><rect x="92.17" y="14.48" width="1" height="10.37" style="fill:#00FF88"></rect><rect x="46.65" y="60.01" width="10.37" height="1" style="fill:#00FF88"></rect><rect x="128.33" y="60.01" width="10.37" height="1" style="fill:#00FF88"></rect><rect x="58.61" y="88.89" width="10.37" height="1" transform="translate(-44.52 71.29) rotate(-45)" style="fill:#00FF88"></rect><rect x="116.37" y="31.13" width="10.37" height="1" transform="translate(13.24 95.21) rotate(-45)" style="fill:#00FF88"></rect><rect x="121.05" y="84.2" width="1" height="10.37" transform="translate(-27.6 112.13) rotate(-45)" style="fill:#00FF88"></rect><rect x="63.29" y="26.44" width="1" height="10.37" transform="translate(-3.68 54.37) rotate(-45)" style="fill:#00FF88"></rect></g></svg>
